<svg id="Layer_1" enable-background="new 0 0 256 256" height="512" viewBox="0 0 256 256" width="512" xmlns="http://www.w3.org/2000/svg"><path d="m242.179 231.602c.398 2.987-1.695 5.759-4.684 6.142-13.915 1.784-15.719 10.256-32.863 10.256-19.161 0-19.161-10.583-38.321-10.583-19.158 0-19.158 10.583-38.316 10.583-19.159 0-19.159-10.583-38.317-10.583-19.159 0-19.159 10.583-38.316 10.583-17.141 0-18.945-8.472-32.857-10.256-2.989-.383-5.081-3.155-4.684-6.142l18.932-142.232h190.494z" fill="#a4c9ff"/><path d="m204.632 250c-10.096 0-15.195-2.816-20.127-5.541-4.695-2.593-9.129-5.042-18.194-5.042-9.063 0-13.497 2.449-18.191 5.042-4.931 2.724-10.03 5.541-20.125 5.541s-15.194-2.816-20.125-5.541c-4.694-2.593-9.128-5.042-18.192-5.042-9.063 0-13.497 2.449-18.191 5.042-4.932 2.724-10.03 5.541-20.125 5.541s-15.194-2.817-20.125-5.541c-3.717-2.053-7.228-3.993-12.987-4.731-1.963-.251-3.712-1.258-4.924-2.835-1.224-1.592-1.752-3.564-1.487-5.555l18.932-142.232c.132-.994.98-1.736 1.982-1.736h190.494c1.003 0 1.851.742 1.982 1.736l18.933 142.231c.265 1.99-.264 3.963-1.488 5.555-1.212 1.577-2.961 2.583-4.925 2.835-5.76.738-9.271 2.678-12.989 4.731-4.932 2.725-10.031 5.542-20.128 5.542zm-38.321-14.583c10.097 0 15.196 2.817 20.128 5.541 4.694 2.593 9.129 5.042 18.193 5.042 9.065 0 13.499-2.449 18.194-5.042 3.882-2.145 7.897-4.362 14.415-5.198.899-.115 1.703-.579 2.262-1.306.571-.742.817-1.662.694-2.589l-18.701-140.495h-186.992l-18.701 140.496c-.124.928.123 1.847.693 2.589.559.727 1.362 1.19 2.262 1.306 6.517.835 10.531 3.053 14.413 5.198 4.694 2.593 9.127 5.042 18.19 5.042s13.497-2.449 18.191-5.042c4.931-2.724 10.03-5.541 20.125-5.541s15.194 2.816 20.125 5.541c4.694 2.593 9.128 5.042 18.192 5.042 9.063 0 13.497-2.449 18.191-5.042 4.931-2.725 10.031-5.542 20.126-5.542z" fill="#3762cc"/><path d="m238.572 129.048-9.907-25.651-5.706-15.263s-.001.013-.001.017c-1.116-4.882-5.475-8.529-10.696-8.529h-168.524c-4.554 0-8.451 2.776-10.114 6.725v-.001l-.002.005c-.128.304-.241.617-.341.934l-3.956 10.824-1.387 3.725-10.51 27.212c-.897 2.322.32 4.924 2.677 5.724l102.614 34.855c3.425 1.163 7.138 1.163 10.563 0l102.614-34.855c2.357-.798 3.573-3.4 2.676-5.722z" fill="#6bdddd"/><path d="m221.099 122.778-7.984-20.67-5.557-15.776-.004.014c-1.38-3.913-5.091-6.723-9.477-6.723h-140.155c-4.649 0-8.538 3.156-9.698 7.437l-.004-.006-5.451 15.355-7.867 20.369c-.755 1.955.269 4.146 2.254 4.82l86.398 29.347c2.884.98 6.01.98 8.894 0l86.398-29.347c1.983-.674 3.008-2.865 2.253-4.82z" fill="#e0ebfc"/><path d="m128 172.495c-2.007 0-4.015-.325-5.925-.974l-102.614-34.855c-1.661-.563-2.984-1.749-3.727-3.338-.743-1.588-.804-3.364-.172-5l10.51-27.212 1.378-3.702 3.952-10.813c.088-.284.216-.64.362-.989.005-.014.011-.027.016-.04 2.033-4.829 6.727-7.949 11.957-7.949h168.525c6.022 0 11.175 4.057 12.6 9.892l5.676 15.184 9.899 25.63h.001c.632 1.636.57 3.413-.173 5.001s-2.066 2.773-3.728 3.337l-102.613 34.855c-1.909.648-3.917.973-5.924.973zm-92.546-85.34c-.1.24-.188.487-.267.736l-5.375 14.643-10.519 27.235c-.236.61-.213 1.272.064 1.865.277.592.771 1.035 1.39 1.245l102.614 34.855c2.991 1.016 6.286 1.016 9.276 0l102.614-34.855c.62-.21 1.113-.652 1.391-1.244.276-.593.3-1.255.063-1.866l-9.906-25.65-5.648-15.109c-.062-.129-.11-.267-.144-.412-.938-4.107-4.534-6.975-8.745-6.975h-168.525c-3.617 0-6.863 2.159-8.27 5.501-.004.01-.009.021-.013.031z" fill="#3762cc"/><path d="m135.222 21.138h-14.443v-1.916c0-3.988 3.233-7.222 7.222-7.222 3.988 0 7.222 3.233 7.222 7.222v1.916z" fill="#ffea92"/><path d="m126.035 27.131h3.93c.601 0 1.197.023 1.793.045v-6.039h-7.517v6.039c.597-.022 1.192-.045 1.794-.045z" fill="#ffea92"/><path d="m135.222 23.138h-14.443c-1.104 0-2-.896-2-2v-1.916c0-5.085 4.137-9.222 9.222-9.222s9.222 4.137 9.222 9.222v1.916c-.001 1.104-.897 2-2.001 2zm-12.443-4h10.442c-.045-2.841-2.369-5.138-5.221-5.138-2.851 0-5.176 2.297-5.221 5.138z" fill="#3762cc"/><path d="m131.758 29.177c-.025 0-.05 0-.075-.001-.596-.022-1.154-.044-1.718-.044h-3.93c-.563 0-1.121.021-1.679.042-.547.021-1.09-.181-1.482-.557-.392-.377-.632-.896-.632-1.44v-6.039c0-1.104.896-2 2-2h7.516c1.104 0 2 .896 2 2v6.039c0 .543-.222 1.063-.612 1.44-.375.36-.872.56-1.388.56zm-5.516-4.046h3.516v-1.994h-3.516z" fill="#3762cc"/><path d="m180.941 79.623h-105.882c-1.855 0-3.36-1.504-3.36-3.36v-1.203c0-1.855 1.504-3.36 3.36-3.36h105.881c1.855 0 3.36 1.504 3.36 3.36v1.203c0 1.856-1.504 3.36-3.359 3.36z" fill="#ffea92"/><path d="m180.94 81.623h-105.88c-2.956 0-5.36-2.404-5.36-5.359v-1.204c0-2.955 2.404-5.359 5.36-5.359h105.88c2.955 0 5.359 2.404 5.359 5.359v1.203c.001 2.955-2.403 5.36-5.359 5.36zm-105.88-7.922c-.75 0-1.36.61-1.36 1.359v1.203c0 .75.61 1.359 1.36 1.359h105.88c.75 0 1.359-.61 1.359-1.359v-1.203c0-.75-.609-1.359-1.359-1.359z" fill="#3762cc"/><path d="m177.054 71.701c-1.347-24.84-21.912-44.569-47.088-44.569h-3.93c-25.177 0-45.742 19.729-47.088 44.569z" fill="#ffea92"/><path d="m177.054 73.701h-98.108c-.549 0-1.074-.226-1.452-.625-.377-.399-.575-.936-.545-1.484 1.413-26.053 22.973-46.461 49.085-46.461h3.93c26.112 0 47.674 20.408 49.086 46.461.029.548-.167 1.085-.545 1.484-.377.399-.902.625-1.451.625zm-95.948-4h93.787c-2.309-22.916-21.649-40.569-44.929-40.569h-3.93c-23.278-.001-42.619 17.653-44.928 40.569z" fill="#3762cc"/><path d="m200.323 56.025c-7.485 0-13.553-6.068-13.553-13.553v-14.883c0-.605.49-1.095 1.095-1.095h24.917c.605 0 1.095.49 1.095 1.095v14.882c-.001 7.486-6.069 13.554-13.554 13.554z" fill="#e0ebfc"/><path d="m186.77 36.374v6.098c0 7.485 6.068 13.553 13.553 13.553s13.553-6.068 13.553-13.553v-6.098z" fill="#f9a7a7"/><path d="m210.595 79.623h-21.127v-.876c0-2.898 2.349-5.247 5.247-5.247h10.633c2.898 0 5.247 2.349 5.247 5.247z" fill="#e0ebfc"/><g fill="#3762cc"><path d="m200.323 58.025c-8.576 0-15.553-6.977-15.553-15.553v-14.883c0-1.707 1.389-3.095 3.095-3.095h24.916c1.706 0 3.095 1.388 3.095 3.095v14.883c0 8.576-6.977 15.553-15.553 15.553zm-11.552-29.53v13.978c0 6.37 5.183 11.553 11.553 11.553s11.553-5.183 11.553-11.553v-13.978z"/><path d="m210.595 81.623h-21.126c-1.104 0-2-.896-2-2v-.875c0-3.996 3.251-7.247 7.247-7.247h10.632c3.996 0 7.247 3.251 7.247 7.247v.875c0 1.104-.896 2-2 2zm-18.925-4h16.724c-.458-1.238-1.65-2.123-3.046-2.123h-10.632c-1.396 0-2.588.885-3.046 2.123z"/><path d="m210.595 81.623h-21.126c-1.104 0-2-.896-2-2v-.875c0-3.996 3.251-7.247 7.247-7.247h10.632c3.996 0 7.247 3.251 7.247 7.247v.875c0 1.104-.896 2-2 2zm-18.925-4h16.724c-.458-1.238-1.65-2.123-3.046-2.123h-10.632c-1.396 0-2.588.885-3.046 2.123z"/><path d="m202.968 73.5v-17.737c-.856.169-1.739.262-2.644.262s-1.789-.093-2.645-.262v17.737z"/></g><path d="m55.677 55.954c-7.485 0-13.553-6.068-13.553-13.553v-14.883c0-.605.49-1.095 1.095-1.095h24.917c.605 0 1.095.49 1.095 1.095v14.882c-.001 7.486-6.069 13.554-13.554 13.554z" fill="#e0ebfc"/><path d="m42.124 36.302v6.098c0 7.485 6.068 13.553 13.553 13.553s13.553-6.068 13.553-13.553v-6.098z" fill="#f9a7a7"/><path d="m66.24 79.623h-21.127v-.876c0-2.898 2.349-5.247 5.247-5.247h10.633c2.898 0 5.247 2.349 5.247 5.247z" fill="#e0ebfc"/><path d="m55.677 57.954c-8.576 0-15.553-6.977-15.553-15.553v-14.883c0-1.707 1.388-3.095 3.095-3.095h24.917c1.707 0 3.095 1.388 3.095 3.095v14.882c-.001 8.577-6.978 15.554-15.554 15.554zm-11.553-29.531v13.977c0 6.371 5.183 11.553 11.553 11.553s11.553-5.182 11.553-11.553v-13.977z" fill="#3762cc"/><path d="m66.24 81.623h-21.127c-1.104 0-2-.896-2-2v-.875c0-3.996 3.251-7.247 7.247-7.247h10.633c3.996 0 7.247 3.251 7.247 7.247v.875c0 1.104-.896 2-2 2zm-18.926-4h16.725c-.458-1.238-1.651-2.123-3.046-2.123h-10.633c-1.395 0-2.588.885-3.046 2.123z" fill="#3762cc"/><path d="m58.321 73.5v-17.809c-.856.169-1.739.262-2.644.262s-1.789-.093-2.645-.262v17.809z" fill="#3762cc"/></svg>