<svg id="Layer_1" enable-background="new 0 0 256 256" height="512" viewBox="0 0 256 256" width="512" xmlns="http://www.w3.org/2000/svg"><path d="m54.564 192.349 39.275-164.633-16.535-19.716h-69.163z" fill="#f9cfcf"/><path d="m47.841 220.532h80.159 80.159l-50.702-212.532h-58.914z" fill="#f9cfcf"/><path d="m178.696 8-16.535 19.716 39.275 164.633 46.423-184.349z" fill="#f9cfcf"/><path d="m201.436 192.349v.002z" fill="#f9a7a7"/><path d="m162.161 27.716-34.359 40.971-33.963-40.971-39.275 164.633 8.82 28.183h130.954l7.098-28.183z" fill="#f9a7a7"/><path d="m244 248h-232c-2.209 0-4-1.791-4-4v-19.468c0-2.209 1.791-4 4-4h232c2.209 0 4 1.791 4 4v19.468c0 2.209-1.791 4-4 4z" fill="#e0ebfc"/><path d="m244 250h-232c-3.309 0-6-2.691-6-6v-19.468c0-3.309 2.691-6 6-6h232c3.309 0 6 2.691 6 6v19.468c0 3.309-2.691 6-6 6zm-232-27.468c-1.103 0-2 .897-2 2v19.468c0 1.103.897 2 2 2h232c1.103 0 2-.897 2-2v-19.468c0-1.103-.897-2-2-2z" fill="#3762cc"/><path d="m48.742 99.229v116.91c0 2.426 1.976 4.393 4.413 4.393s4.413-1.967 4.413-4.393v-116.91z" fill="#e0ebfc"/><path d="m53.154 222.532c-3.536 0-6.413-2.868-6.413-6.393v-116.91c0-1.104.896-2 2-2h8.826c1.104 0 2 .896 2 2v116.91c0 3.525-2.877 6.393-6.413 6.393zm-2.413-121.303v114.91c0 1.319 1.082 2.393 2.413 2.393s2.413-1.074 2.413-2.393v-114.91z" fill="#3762cc"/><path d="m195.687 99.229v116.91c0 2.426 1.976 4.393 4.413 4.393s4.413-1.967 4.413-4.393v-116.91z" fill="#e0ebfc"/><path d="m200.101 222.532c-3.536 0-6.413-2.868-6.413-6.393v-116.91c0-1.104.896-2 2-2h8.825c1.104 0 2 .896 2 2v116.91c0 3.525-2.877 6.393-6.412 6.393zm-2.413-121.303v114.91c0 1.319 1.082 2.393 2.413 2.393 1.33 0 2.412-1.074 2.412-2.393v-114.91z" fill="#3762cc"/><path d="m206.669 99.229h-13.245c-1.704 0-3.085-1.381-3.085-3.085v-5.74h19.416v5.74c0 1.704-1.382 3.085-3.086 3.085z" fill="#ffea92"/><path d="m226.268 90.403h-52.443c-3.431 0-6.213-2.781-6.213-6.213v-.776c0-.858.695-1.553 1.553-1.553h61.762c.858 0 1.553.695 1.553 1.553v.776c.001 3.432-2.781 6.213-6.212 6.213z" fill="#ffea92"/><path d="m195.617 57.827h8.858c1.453 0 2.631 1.178 2.631 2.631v6.194h-14.121v-6.194c.001-1.453 1.179-2.631 2.632-2.631z" fill="#ffea92"/><path d="m173.825 66.663h52.443c3.431 0 6.213 2.781 6.213 6.213v.776c0 .858-.695 1.553-1.553 1.553h-61.762c-.858 0-1.553-.695-1.553-1.553v-.776c0-3.432 2.781-6.213 6.212-6.213z" fill="#ffea92"/><path d="m206.669 101.229h-13.245c-2.804 0-5.085-2.281-5.085-5.085v-5.74c0-1.104.896-2 2-2h19.416c1.104 0 2 .896 2 2v5.74c0 2.804-2.281 5.085-5.086 5.085zm-14.33-8.826v3.74c0 .599.486 1.085 1.085 1.085h13.245c.599 0 1.086-.487 1.086-1.085v-3.74z" fill="#3762cc"/><path d="m226.269 92.403h-52.443c-4.528 0-8.213-3.684-8.213-8.212v-.776c0-1.959 1.594-3.553 3.554-3.553h61.762c1.959 0 3.553 1.594 3.553 3.553v.776c-.002 4.528-3.685 8.212-8.213 8.212zm-56.657-8.541v.329c0 2.323 1.89 4.212 4.213 4.212h52.443c2.322 0 4.212-1.89 4.212-4.212v-.329z" fill="#3762cc"/><path d="m207.107 68.653h-14.121c-1.104 0-2-.896-2-2v-6.194c0-2.554 2.077-4.631 4.631-4.631h8.858c2.554 0 4.632 2.078 4.632 4.631v6.194c0 1.104-.895 2-2 2zm-12.121-4h10.121v-4.194c0-.348-.283-.631-.632-.631h-8.858c-.348 0-.631.283-.631.631z" fill="#3762cc"/><path d="m230.928 77.204h-61.762c-1.96 0-3.554-1.594-3.554-3.553v-.776c0-4.528 3.685-8.212 8.213-8.212h52.443c4.528 0 8.212 3.684 8.212 8.212v.776c0 1.959-1.593 3.553-3.552 3.553zm-61.316-4h60.868v-.329c0-2.323-1.89-4.212-4.212-4.212h-52.443c-2.323 0-4.213 1.89-4.213 4.212z" fill="#3762cc"/><path d="m79.323 90.403h-52.443c-3.431 0-6.213-2.781-6.213-6.213v-.776c0-.858.695-1.553 1.553-1.553h61.762c.858 0 1.553.695 1.553 1.553v.776c0 3.432-2.781 6.213-6.212 6.213z" fill="#ffea92"/><path d="m47.524 57.827h8.858c1.453 0 2.631 1.178 2.631 2.631v6.194h-14.12v-6.194c0-1.453 1.178-2.631 2.631-2.631z" fill="#ffea92"/><path d="m25.732 66.663h52.443c3.431 0 6.213 2.781 6.213 6.213v.776c0 .858-.695 1.553-1.553 1.553h-61.762c-.858 0-1.553-.695-1.553-1.553v-.776c-.001-3.432 2.781-6.213 6.212-6.213z" fill="#ffea92"/><path d="m59.724 99.229h-13.246c-1.704 0-3.085-1.381-3.085-3.085v-5.74h19.416v5.74c0 1.704-1.381 3.085-3.085 3.085z" fill="#ffea92"/><path d="m79.322 92.403h-52.442c-4.528 0-8.213-3.684-8.213-8.212v-.776c0-1.959 1.594-3.553 3.554-3.553h61.761c1.96 0 3.554 1.594 3.554 3.553v.776c-.001 4.528-3.685 8.212-8.214 8.212zm-56.655-8.541v.329c0 2.323 1.89 4.212 4.213 4.212h52.442c2.323 0 4.213-1.89 4.213-4.212v-.329z" fill="#3762cc"/><path d="m59.014 68.653h-14.121c-1.104 0-2-.896-2-2v-6.194c0-2.554 2.078-4.631 4.632-4.631h8.858c2.554 0 4.631 2.078 4.631 4.631v6.194c0 1.104-.896 2-2 2zm-12.121-4h10.121v-4.194c0-.348-.283-.631-.631-.631h-8.858c-.349 0-.632.283-.632.631z" fill="#3762cc"/><path d="m82.834 77.204h-61.762c-1.959 0-3.553-1.594-3.553-3.553v-.776c0-4.528 3.684-8.212 8.212-8.212h52.443c4.528 0 8.213 3.684 8.213 8.212v.776c.001 1.959-1.593 3.553-3.553 3.553zm-61.314-4h60.868v-.329c0-2.323-1.89-4.212-4.213-4.212h-52.444c-2.322 0-4.212 1.89-4.212 4.212v.329z" fill="#3762cc"/><path d="m123.999 193.54h-89.922c-2.315 0-4.192-1.877-4.192-4.192 0-2.315 1.877-4.192 4.192-4.192h89.921c2.315 0 4.192 1.877 4.192 4.192.001 2.315-1.876 4.192-4.191 4.192z" fill="#a4c9ff"/><path d="m123.999 195.54h-89.922c-3.414 0-6.192-2.778-6.192-6.192 0-3.415 2.778-6.192 6.192-6.192h89.922c3.414 0 6.191 2.778 6.191 6.192s-2.777 6.192-6.191 6.192zm-89.922-8.384c-1.209 0-2.192.983-2.192 2.192 0 1.208.983 2.192 2.192 2.192h89.922c1.208 0 2.191-.983 2.191-2.192s-.983-2.192-2.191-2.192z" fill="#3762cc"/><path d="m33.763 118.082h90.55v67.074h-90.55z" fill="#6bdddd"/><path d="m124.313 187.156h-90.55c-1.104 0-2-.896-2-2v-67.074c0-1.104.896-2 2-2h90.55c1.104 0 2 .896 2 2v67.074c0 1.104-.896 2-2 2zm-88.55-4h86.55v-63.074h-86.55z" fill="#3762cc"/><path d="m149.496 124.211h78.061v25.042h-78.061z" fill="#6bdddd"/><path d="m227.557 151.253h-78.061c-1.104 0-2-.896-2-2v-25.042c0-1.104.896-2 2-2h78.061c1.104 0 2 .896 2 2v25.042c0 1.104-.896 2-2 2zm-76.061-4h74.061v-21.042h-74.061z" fill="#3762cc"/><path d="m88.398 198.665-4.162 15.534c-.719 2.684.874 5.442 3.557 6.161 2.684.719 5.442-.874 6.161-3.557l2.97-11.085c-3.078-2.062-5.933-4.427-8.526-7.053z" fill="#e0ebfc"/><path d="m166.241 198.665c-2.593 2.626-5.448 4.992-8.526 7.053l2.97 11.085c.719 2.684 3.477 4.276 6.161 3.557s4.276-3.478 3.557-6.161z" fill="#e0ebfc"/><path d="m89.105 222.534c-.61 0-1.226-.08-1.831-.243-1.814-.486-3.33-1.649-4.27-3.275-.938-1.627-1.188-3.521-.701-5.335l4.162-15.534c.186-.692.728-1.232 1.42-1.416.69-.18 1.431.018 1.935.528 2.506 2.537 5.271 4.824 8.216 6.796.712.476 1.041 1.353.819 2.179l-2.971 11.085c-.485 1.814-1.648 3.33-3.275 4.269-1.083.627-2.286.946-3.504.946zm.352-20.097-3.29 12.279c-.21.782-.103 1.599.303 2.3.404.701 1.058 1.202 1.84 1.412.784.209 1.599.101 2.3-.303.701-.405 1.202-1.059 1.412-1.84l2.604-9.721c-1.796-1.271-3.524-2.651-5.169-4.127z" fill="#3762cc"/><path d="m165.546 222.532c-3.104 0-5.951-2.074-6.793-5.211l-2.97-11.086c-.222-.827.107-1.703.818-2.179 2.948-1.974 5.712-4.261 8.217-6.796.505-.511 1.245-.708 1.935-.528.692.184 1.234.724 1.42 1.416l4.162 15.534c1.003 3.745-1.228 7.607-4.972 8.61-.606.162-1.217.24-1.817.24zm-5.534-15.969 2.604 9.722c.434 1.613 2.1 2.574 3.712 2.143 1.614-.433 2.575-2.098 2.144-3.712l-3.29-12.279c-1.644 1.476-3.372 2.855-5.17 4.126z" fill="#3762cc"/><path d="m97.974 90.929c0-2.315 1.877-4.192 4.192-4.192h50.306c2.315 0 4.192 1.877 4.192 4.192 0 2.315-1.877 4.192-4.192 4.192h-50.306c-2.315.001-4.192-1.876-4.192-4.192z" fill="#a4c9ff"/><path d="m127.319 107.963c1.697 0 3.373.088 5.031.24v-13.081h-10.061v13.081c1.657-.152 3.333-.24 5.03-.24z" fill="#a4c9ff"/><path d="m152.472 97.122h-50.306c-3.414 0-6.191-2.778-6.191-6.192s2.777-6.192 6.191-6.192h50.306c3.414 0 6.192 2.778 6.192 6.192s-2.778 6.192-6.192 6.192zm-50.306-8.385c-1.208 0-2.191.983-2.191 2.192s.983 2.192 2.191 2.192h50.306c1.209 0 2.192-.983 2.192-2.192 0-1.208-.983-2.192-2.192-2.192z" fill="#3762cc"/><path d="m132.35 110.202c-.061 0-.121-.003-.182-.008-3.414-.311-6.283-.311-9.697 0-.559.051-1.115-.136-1.53-.515s-.651-.915-.651-1.477v-13.08c0-1.104.896-2 2-2h10.061c1.104 0 2 .896 2 2v13.081c0 .562-.236 1.098-.651 1.477-.372.337-.853.522-1.35.522zm-5.031-4.239c.994 0 1.997.028 3.03.086v-8.928h-6.061v8.928c1.034-.058 2.037-.086 3.031-.086z" fill="#3762cc"/><path d="m123.999 124.054h-89.922c-2.315 0-4.192-1.877-4.192-4.192 0-2.315 1.877-4.192 4.192-4.192h89.921c2.315 0 4.192 1.877 4.192 4.192.001 2.315-1.876 4.192-4.191 4.192z" fill="#a4c9ff"/><path d="m123.999 126.054h-89.922c-3.414 0-6.192-2.778-6.192-6.192 0-3.415 2.778-6.192 6.192-6.192h89.922c3.414 0 6.191 2.778 6.191 6.192s-2.777 6.192-6.191 6.192zm-89.922-8.385c-1.209 0-2.192.983-2.192 2.192s.983 2.192 2.192 2.192h89.922c1.208 0 2.191-.983 2.191-2.192s-.983-2.192-2.191-2.192z" fill="#3762cc"/><path d="m227.497 157.794h-77.94c-2.08 0-3.766-1.686-3.766-3.766v-1.009c0-2.08 1.686-3.766 3.766-3.766h77.94c2.08 0 3.766 1.686 3.766 3.766v1.009c0 2.08-1.686 3.766-3.766 3.766z" fill="#a4c9ff"/><path d="m227.497 159.794h-77.94c-3.179 0-5.766-2.587-5.766-5.766v-1.009c0-3.18 2.587-5.766 5.766-5.766h77.94c3.179 0 5.766 2.586 5.766 5.766v1.009c0 3.18-2.587 5.766-5.766 5.766zm-77.94-8.541c-.974 0-1.766.792-1.766 1.766v1.009c0 .974.792 1.766 1.766 1.766h77.94c.974 0 1.766-.792 1.766-1.766v-1.009c0-.974-.792-1.766-1.766-1.766z" fill="#3762cc"/><path d="m227.449 124.211h-77.94c-2.08 0-3.766-1.686-3.766-3.766v-1.009c0-2.08 1.686-3.766 3.766-3.766h77.94c2.08 0 3.766 1.686 3.766 3.766v1.009c0 2.08-1.686 3.766-3.766 3.766z" fill="#a4c9ff"/><path d="m227.449 126.211h-77.94c-3.179 0-5.766-2.586-5.766-5.766v-1.009c0-3.179 2.587-5.766 5.766-5.766h77.94c3.179 0 5.766 2.587 5.766 5.766v1.009c0 3.18-2.587 5.766-5.766 5.766zm-77.94-8.542c-.974 0-1.766.792-1.766 1.766v1.009c0 .974.792 1.766 1.766 1.766h77.94c.974 0 1.766-.792 1.766-1.766v-1.009c0-.974-.792-1.766-1.766-1.766z" fill="#3762cc"/><circle cx="127.319" cy="160.23" fill="#ffea92" r="54.707"/><circle cx="127.319" cy="160.23" fill="#4671c6" r="43.081"/><path d="m127.319 216.937c-31.269 0-56.708-25.438-56.708-56.707s25.439-56.708 56.708-56.708 56.707 25.439 56.707 56.708-25.438 56.707-56.707 56.707zm0-109.415c-29.063 0-52.708 23.645-52.708 52.708s23.645 52.707 52.708 52.707 52.707-23.644 52.707-52.707-23.644-52.708-52.707-52.708z" fill="#3762cc"/><g fill="#e0ebfc"><path d="m103.988 167.475h-6.804v-12.757c0-1.008-.26-1.798-.773-2.348-.523-.56-1.23-.855-2.047-.855-.814 0-1.516.302-2.032.874-.497.552-.749 1.336-.749 2.33v14.45c0 1.061.271 1.873.803 2.411.536.543 1.352.818 2.426.818h9.177c.846 0 1.524-.22 2.016-.653.518-.456.791-1.077.791-1.795 0-.704-.272-1.324-.787-1.792-.498-.453-1.178-.683-2.021-.683z"/><path d="m112.226 151.515c-.804 0-1.503.301-2.021.87-.504.553-.759 1.338-.759 2.334v14.783c0 .996.258 1.784.766 2.341.523.573 1.219.876 2.014.876.818 0 1.528-.299 2.05-.865.511-.554.77-1.345.77-2.351v-14.783c0-1.007-.26-1.798-.773-2.348-.523-.562-1.23-.857-2.047-.857z"/><path d="m134.939 151.881c-.417-.243-.873-.366-1.356-.366-.655 0-1.2.174-1.619.517-.369.302-.641.654-.809 1.049-.123.288-.3.778-.525 1.454l-3.41 10.14-3.392-10.04c-.31-.961-.616-1.657-.936-2.129-.307-.452-.923-.99-2.122-.99-.767 0-1.446.28-1.963.809-.511.523-.78 1.152-.78 1.819 0 .238.034.507.105.824.064.286.145.56.241.814.078.205.154.414.234.644l4.461 12.142c.165.481.332.935.497 1.363.183.473.404.908.659 1.293.296.446.688.809 1.165 1.079.49.277 1.076.417 1.742.417.67 0 1.259-.144 1.75-.428.474-.274.86-.633 1.149-1.067.25-.375.47-.809.655-1.291.165-.431.331-.887.49-1.347l4.55-12.278c.076-.218.15-.429.224-.63.091-.243.164-.491.225-.747.067-.284.1-.557.1-.813 0-.433-.121-.86-.36-1.269-.236-.403-.564-.728-.975-.969z"/><path d="m154.646 168.229c-.474-.432-1.132-.651-1.958-.651h-7.957v-3.537h6.985c.825 0 1.474-.22 1.927-.652.459-.438.701-1.023.701-1.694 0-.679-.25-1.265-.723-1.697-.455-.414-1.096-.624-1.904-.624h-6.985v-2.808h7.662c.835 0 1.493-.215 1.957-.639.481-.439.735-1.038.735-1.733 0-.687-.254-1.282-.735-1.721-.464-.424-1.122-.638-1.957-.638h-10.034c-.665 0-1.237.107-1.699.318-.536.245-.952.657-1.201 1.19-.221.471-.329 1.034-.329 1.721v14.105c0 1.061.271 1.873.803 2.411.536.543 1.352.818 2.426.818h10.329c.826 0 1.485-.219 1.959-.653.488-.448.746-1.051.746-1.745-.001-.709-.259-1.322-.748-1.771z"/></g><circle cx="160.249" cy="156.026" fill="#f9cfcf" r="3.358"/><path d="m59.724 101.229h-13.245c-2.805 0-5.086-2.281-5.086-5.085v-5.74c0-1.104.896-2 2-2h19.417c1.104 0 2 .896 2 2v5.74c0 2.804-2.282 5.085-5.086 5.085zm-14.331-8.826v3.74c0 .599.487 1.085 1.086 1.085h13.245c.599 0 1.086-.487 1.086-1.085v-3.74z" fill="#3762cc"/><path d="m64.633 180.071c-1.836-1.989-2.825-4.473-2.825-7.029v-5.025l2.435-10.902c.276-1.235-.114-2.565-1.106-3.35-1.156-.914-2.732-.923-3.882-.104l-10.169 7.251h-4.004v-4.179h-7.997v.033l-5.505-.568c-.829-.086-1.575-.542-2.028-1.242l-10.978-16.946c-1.056-1.272-2.75-1.542-4.075-.65-.997.671-1.608 1.888-1.608 3.202l3.875 28.988v3.492c0 2.556-.989 5.04-2.825 7.029-3.884 4.207-6.183 9.413-6.183 15.052 0 13.981 14.116 25.315 31.529 25.315s31.529-11.334 31.529-25.315c0-5.639-2.299-10.845-6.183-15.052z" fill="#4671c6"/><path d="m39.287 222.438c-18.487 0-33.528-12.253-33.528-27.315 0-5.977 2.321-11.651 6.713-16.408 1.479-1.603 2.295-3.618 2.295-5.673v-3.358l-3.857-28.856c-.012-.088-.018-.176-.018-.265 0-1.994.931-3.811 2.49-4.861 2.181-1.471 5.014-1.038 6.731 1.032.05.061.097.124.14.19l10.978 16.946c.125.193.327.316.556.34l5.142.53c.052-.004.104-.006.157-.006h7.997c1.104 0 2 .896 2 2v2.179h1.364l9.647-6.88c1.883-1.342 4.465-1.274 6.284.164 1.555 1.229 2.269 3.33 1.817 5.354l-2.388 10.688v4.804c0 2.055.815 4.07 2.295 5.673 4.393 4.758 6.714 10.432 6.714 16.408 0 15.06-15.041 27.314-33.529 27.314zm-24.392-81.988 3.854 28.835c.012.088.018.176.018.265v3.492c0 3.063-1.191 6.042-3.355 8.386-3.698 4.005-5.652 8.741-5.652 13.695 0 12.856 13.246 23.315 29.528 23.315s29.529-10.459 29.529-23.315c0-4.953-1.955-9.689-5.653-13.695-2.164-2.344-3.355-5.322-3.355-8.386v-5.024c0-.146.017-.293.048-.436l2.436-10.902c.117-.525-.041-1.066-.395-1.345-.437-.347-1.032-.363-1.48-.045l-10.169 7.251c-.339.242-.745.372-1.161.372h-4.004c-1.104 0-2-.896-2-2v-2.179h-5.657c-.178.034-.361.042-.545.022l-5.505-.568c-1.44-.149-2.716-.931-3.502-2.145l-10.9-16.827c-.396-.423-.909-.5-1.355-.198-.418.28-.695.833-.725 1.432z" fill="#3762cc"/><path d="m41.454 97.119h-3.934-3.76v51.335 18.01c0 .863.703 1.563 1.571 1.563h8.38c.868 0 1.571-.7 1.571-1.563v-9.329-8.681-51.335z" fill="#e0ebfc"/><path d="m33.76 105.811h11.522v4.608h-11.522z" fill="#a4c9ff"/><path d="m33.76 121.941h11.522v4.608h-11.522z" fill="#a4c9ff"/><path d="m33.76 138.07h11.522v4.608h-11.522z" fill="#a4c9ff"/><path d="m33.76 154.366h11.522v4.608h-11.522z" fill="#a4c9ff"/><path d="m49.279 212.191h-19.585c-.636 0-1.152-.516-1.152-1.152v-3.744c0-2.704 2.192-4.896 4.896-4.896h12.097c2.704 0 4.896 2.192 4.896 4.896v3.744c0 .636-.515 1.152-1.152 1.152z" fill="#ffea92"/><path d="m50.248 191.741h-21.319c-1.112 0-2.014-.902-2.014-2.014v-1.733c0-1.112.902-2.014 2.014-2.014h21.318c1.112 0 2.014.902 2.014 2.014v1.733c.001 1.112-.901 2.014-2.013 2.014z" fill="#e0ebfc"/><path d="m47.608 180.22h-16.038c-1.112 0-2.014-.902-2.014-2.014v-1.733c0-1.112.902-2.014 2.014-2.014h16.038c1.112 0 2.014.902 2.014 2.014v1.733c-.001 1.112-.902 2.014-2.014 2.014z" fill="#e0ebfc"/><path d="m43.711 170.027h-8.38c-1.969 0-3.571-1.602-3.571-3.571v-69.337c0-1.104.896-2 2-2h11.008c.598-.154 1.243-.023 1.731.356.487.379.782.961.782 1.579v69.402c0 1.969-1.601 3.571-3.57 3.571zm-7.951-4h7.521v-66.908h-7.521z" fill="#3762cc"/><path d="m50.859 99.445-4.839-14.209c-.092-.269-.138-.551-.138-.836v-7.002c0-1.145-.928-2.074-2.074-2.074h-3.111-4.212c-1.022 0-1.892.745-2.049 1.754l-4.524 29.019c-.294 1.886 1.165 3.59 3.074 3.59h7.711 4.071c.696 0 1.345-.349 1.729-.929l3.924-5.925c.663-1 .825-2.251.438-3.388z" fill="#4671c6"/><path d="m44.768 111.688h-11.783c-1.495 0-2.909-.651-3.882-1.787s-1.397-2.634-1.168-4.111l4.523-29.018c.312-1.997 2.004-3.446 4.025-3.446h7.323c2.246 0 4.074 1.828 4.074 4.074v7c0 .066.011.132.032.196l4.837 14.203c.584 1.71.336 3.632-.663 5.14l-3.924 5.925c-.756 1.142-2.025 1.824-3.394 1.824zm-8.284-34.363-4.596 29.081c-.069.439.129.749.253.894s.399.388.844.388h11.782l3.986-5.958c.318-.481.397-1.094.212-1.64 0 0-.001 0-.001-.001l-4.839-14.208c-.162-.482-.244-.979-.244-1.48v-7.001c0-.041-.033-.074-.074-.074h-7.323z" fill="#3762cc"/><path d="m28.144 86.928c-.284-.524-.46-1.248-.46-2.048 0-1.6.703-2.897 1.571-2.897h7.777c.867 0 1.571 1.297 1.571 2.896 0 1.6-.703 2.897-1.571 2.897h-7.777c-.434 0-.827-.324-1.111-.848z" fill="#e0ebfc"/><path d="m26.07 99.864c-.284-.524-.46-1.248-.46-2.048 0-1.6.703-2.896 1.571-2.896h7.777c.868 0 1.571 1.297 1.571 2.896 0 1.6-.703 2.896-1.571 2.896h-7.777c-.434.001-.827-.324-1.111-.848z" fill="#e0ebfc"/><path d="m29.252 89.776c-1.168 0-2.213-.69-2.866-1.895-.453-.834-.702-1.9-.702-3.001s.249-2.167.702-3.002c.653-1.204 1.698-1.895 2.868-1.895h.002 7.775.002c1.168 0 2.214.69 2.867 1.894.453.835.702 1.901.702 3.002s-.249 2.167-.702 3.002c-.653 1.204-1.698 1.895-2.868 1.895-.001 0-.002 0-.002 0h-7.775c-.001 0-.002 0-.003 0zm.684-3.747h.01zm7.094-.253c.001 0 .001 0 0 0zm-7.213 0h6.651c.066-.194.134-.495.134-.896s-.067-.702-.134-.896h-6.651c-.066.194-.134.495-.134.896.001.373.061.681.134.896z" fill="#3762cc"/><path d="m34.958 102.713h-7.777c-.001 0-.002 0-.004 0-1.166 0-2.211-.69-2.864-1.895-.453-.834-.703-1.9-.703-3.002 0-2.791 1.535-4.896 3.571-4.896h7.777.002c2.033 0 3.567 2.104 3.569 4.896-.002 2.792-1.537 4.897-3.571 4.897zm-7.096-3.747h.011zm-.119-.254h6.651c.067-.195.135-.496.135-.897s-.067-.701-.135-.896h-6.651c-.066.194-.134.495-.134.896 0 .374.061.683.134.897zm7.215-1.792c.001 0 .001 0 0 0z" fill="#3762cc"/></svg>