<svg id="Layer_1" enable-background="new 0 0 256 256" height="512" viewBox="0 0 256 256" width="512" xmlns="http://www.w3.org/2000/svg"><circle cx="131.917" cy="158.366" fill="#e0ebfc" r="82.887"/><circle cx="131.917" cy="158.366" fill="#a4c9ff" r="73.387"/><path d="m24.333 121.699h12v54.25h-12z" fill="#e0ebfc"/><path d="m36.583 249.199h-12.5c-2.209 0-4-1.791-4-4v-65.25c0-2.209 1.791-4 4-4h12.5c2.209 0 4 1.791 4 4v65.25c0 2.209-1.791 4-4 4z" fill="#4671c6"/><path d="m47.489 61.832c-2.451.234-4.252 2.433-4.252 4.895v24.027c0 .552-.448 1-1 1h-6.189c-.552 0-1-.448-1-1v-24.027c0-2.462-1.8-4.661-4.252-4.895-2.812-.268-5.178 1.936-5.178 4.693v24.23c0 .552-.448 1-1 1h-6.188c-.552 0-1-.448-1-1v-24.027c0-2.463-1.8-4.662-4.252-4.895-2.812-.269-5.178 1.935-5.178 4.692v25.23 15.493c0 7.982 6.47 14.452 14.452 14.452h15.763c7.982 0 14.452-6.47 14.452-14.452v-15.494-25.23c0-2.756-2.366-4.96-5.178-4.692z" fill="#e0ebfc"/><path d="m241.265 61.81c-17.143 36.841-19.456 84.57-19.759 98.647-.048 2.241 1.758 4.076 4 4.076h6.815v11.417h10.859v-11.417-102.298c0-1.071-1.463-1.397-1.915-.425z" fill="#e0ebfc"/><path d="m244 249.199h-12.5c-2.209 0-4-1.791-4-4v-65.25c0-2.209 1.791-4 4-4h12.5c2.209 0 4 1.791 4 4v65.25c0 2.209-1.791 4-4 4z" fill="#4671c6"/><path d="m153.489 98.533h-43.144c-15.688 0-28.406 12.718-28.406 28.406v19.736c0 3.744 2.101 6.996 5.189 8.644 1.052.561 1.701 1.662 1.701 2.854v46.12c0 3.38 2.74 6.12 6.12 6.12h73.937c3.38 0 6.12-2.74 6.12-6.12v-46.12c0-1.192.649-2.293 1.701-2.854 3.087-1.647 5.189-4.9 5.189-8.644v-19.736c-.002-15.689-12.719-28.406-28.407-28.406z" fill="#eaa97d"/><path d="m95.828 203.412v-45.24c0-3.792-2.071-7.251-5.406-9.03-.716-.382-1.483-1.232-1.483-2.468v-19.736c0-11.803 9.603-21.405 21.405-21.405h43.145c11.803 0 21.405 9.603 21.405 21.405v19.736c0 1.236-.767 2.085-1.484 2.468-3.334 1.778-5.405 5.238-5.405 9.03v45.24z" fill="#f9cfcf"/><circle cx="131.667" cy="158.699" fill="#e0ebfc" r="34"/><circle cx="140.569" cy="151.87" fill="#ffea92" r="14.136"/><path d="m100.253 67.671h62.099c0-17.148-13.901-31.049-31.049-31.049-17.149-.001-31.05 13.901-31.05 31.049z" fill="#ffea92"/><path d="m131.302 32.09c-1.988 0-3.6-1.612-3.6-3.6v-18.089c0-1.988 1.612-3.6 3.6-3.6s3.6 1.612 3.6 3.6v18.089c0 1.988-1.612 3.6-3.6 3.6z" fill="#ffea92"/><path d="m101.154 44.059c-.922 0-1.843-.352-2.546-1.054l-12.791-12.792c-1.406-1.406-1.406-3.685 0-5.091s3.685-1.406 5.091 0l12.791 12.791c1.406 1.406 1.406 3.685 0 5.091-.703.703-1.624 1.055-2.545 1.055z" fill="#ffea92"/><path d="m161.451 44.059c-.922 0-1.843-.352-2.546-1.054-1.406-1.406-1.406-3.685 0-5.091l12.791-12.791c1.406-1.406 3.685-1.406 5.092 0 1.406 1.406 1.406 3.685 0 5.091l-12.791 12.791c-.703.702-1.624 1.054-2.546 1.054z" fill="#ffea92"/><path d="m190.896 64.996h-18.089c-1.988 0-3.6-1.612-3.6-3.6s1.612-3.6 3.6-3.6h18.089c1.988 0 3.6 1.612 3.6 3.6s-1.612 3.6-3.6 3.6z" fill="#ffea92"/><path d="m90.096 64.996h-18.09c-1.988 0-3.6-1.612-3.6-3.6s1.612-3.6 3.6-3.6h18.089c1.988 0 3.6 1.612 3.6 3.6s-1.611 3.6-3.599 3.6z" fill="#ffea92"/><g fill="#3762cc"><path d="m36.333 177.949h-12c-1.104 0-2-.896-2-2v-54.25c0-1.104.896-2 2-2h12c1.104 0 2 .896 2 2v54.25c0 1.105-.895 2-2 2zm-10-4h8v-50.25h-8z"/><path d="m38.215 123.699h-15.763c-9.072 0-16.452-7.38-16.452-16.451v-40.724c0-1.888.801-3.699 2.199-4.97 1.396-1.269 3.278-1.896 5.168-1.713 3.399.323 6.062 3.348 6.062 6.886v23.027h4.189v-23.23c0-1.888.801-3.699 2.199-4.97 1.396-1.269 3.277-1.896 5.168-1.713 3.399.323 6.062 3.348 6.062 6.886v23.027h4.188v-23.027c0-3.538 2.663-6.562 6.062-6.886 1.892-.183 3.773.444 5.168 1.713 1.398 1.271 2.199 3.082 2.199 4.97v40.723c.003 9.072-7.378 16.452-16.449 16.452zm-25.5-59.889c-.68 0-1.32.245-1.825.705-.574.521-.89 1.235-.89 2.009v40.723c0 6.866 5.586 12.452 12.452 12.452h15.763c6.866 0 12.452-5.586 12.452-12.452v-40.723c0-.774-.316-1.488-.89-2.01-.573-.52-1.313-.763-2.098-.692-1.369.13-2.441 1.406-2.441 2.904v24.027c0 1.654-1.346 3-3 3h-6.188c-1.654 0-3-1.346-3-3v-24.026c0-1.498-1.072-2.774-2.441-2.904-.78-.072-1.526.171-2.099.691-.574.521-.89 1.235-.89 2.01v24.23c0 1.654-1.346 3-3 3h-6.19c-1.654 0-3-1.346-3-3v-24.027c0-1.498-1.072-2.774-2.441-2.904-.093-.009-.184-.013-.274-.013zm34.774-1.978h.01z"/><path d="m36.583 251.199h-12.5c-3.309 0-6-2.691-6-6v-65.25c0-3.309 2.691-6 6-6h12.5c3.309 0 6 2.691 6 6v65.25c0 3.309-2.691 6-6 6zm-12.5-73.25c-1.103 0-2 .897-2 2v65.25c0 1.103.897 2 2 2h12.5c1.103 0 2-.897 2-2v-65.25c0-1.103-.897-2-2-2z"/><path d="m243.18 177.949h-10.86c-1.104 0-2-.896-2-2v-9.417h-4.815c-1.63 0-3.154-.641-4.293-1.804-1.135-1.16-1.741-2.693-1.706-4.315.3-13.919 2.626-62.228 19.945-99.448.599-1.285 1.988-1.966 3.371-1.662 1.388.307 2.356 1.513 2.356 2.932v113.714c.002 1.105-.894 2-1.998 2zm-8.86-4h6.859v-107.029c-15.265 35.865-17.39 80.386-17.674 93.58-.012.539.189 1.047.566 1.432.379.388.889.602 1.434.602h6.815c1.104 0 2 .896 2 2zm8.759-111.296c-.001.002-.001.002 0 0z"/><path d="m244 251.199h-12.5c-3.309 0-6-2.691-6-6v-65.25c0-3.309 2.691-6 6-6h12.5c3.309 0 6 2.691 6 6v65.25c0 3.309-2.691 6-6 6zm-12.5-73.25c-1.103 0-2 .897-2 2v65.25c0 1.103.897 2 2 2h12.5c1.103 0 2-.897 2-2v-65.25c0-1.103-.897-2-2-2z"/><path d="m131.917 243.253c-46.807 0-84.888-38.08-84.888-84.887s38.081-84.888 84.888-84.888 84.888 38.081 84.888 84.888-38.081 84.887-84.888 84.887zm0-165.774c-44.602 0-80.888 36.286-80.888 80.888s36.286 80.887 80.888 80.887 80.888-36.286 80.888-80.887-36.287-80.888-80.888-80.888z"/><path d="m131.917 233.753c-41.569 0-75.387-33.819-75.387-75.388s33.818-75.387 75.387-75.387 75.388 33.818 75.388 75.387-33.82 75.388-75.388 75.388zm0-146.774c-39.363 0-71.387 32.024-71.387 71.387s32.024 71.388 71.387 71.388 71.388-32.024 71.388-71.388c-.001-39.363-32.025-71.387-71.388-71.387z"/><path d="m168.885 212.412h-73.937c-4.478 0-8.12-3.643-8.12-8.12v-46.12c0-.461-.246-.878-.642-1.089-3.854-2.056-6.247-6.044-6.247-10.409v-19.736c0-16.766 13.64-30.405 30.405-30.405h43.145c16.766 0 30.405 13.64 30.405 30.405v19.736c0 4.364-2.394 8.353-6.247 10.409-.396.211-.642.628-.642 1.089v46.12c0 4.478-3.643 8.12-8.12 8.12zm-58.541-111.879c-14.56 0-26.405 11.845-26.405 26.405v19.736c0 2.884 1.583 5.52 4.13 6.879 1.702.908 2.759 2.678 2.759 4.619v46.12c0 2.272 1.848 4.12 4.12 4.12h73.937c2.272 0 4.12-1.848 4.12-4.12v-46.12c0-1.941 1.057-3.711 2.759-4.619 2.547-1.359 4.13-3.995 4.13-6.879v-19.736c0-14.56-11.845-26.405-26.405-26.405z"/><path d="m131.667 194.699c-19.851 0-36-16.149-36-36s16.149-36 36-36 36 16.149 36 36-16.15 36-36 36zm0-68c-17.645 0-32 14.355-32 32s14.355 32 32 32 32-14.355 32-32-14.355-32-32-32z"/><path d="m140.569 168.006c-8.898 0-16.137-7.239-16.137-16.136 0-8.898 7.239-16.137 16.137-16.137 8.897 0 16.136 7.239 16.136 16.137s-7.239 16.136-16.136 16.136zm0-28.273c-6.692 0-12.137 5.444-12.137 12.137 0 6.692 5.444 12.136 12.137 12.136 6.692 0 12.136-5.444 12.136-12.136s-5.444-12.137-12.136-12.137z"/></g></svg>