<svg id="Layer_1" enable-background="new 0 0 256 256" height="512" viewBox="0 0 256 256" width="512" xmlns="http://www.w3.org/2000/svg"><path d="m59.28 230.571c-28.316 0-46.716-4.48-47.673-4.718-2.669-.665-4.294-3.367-3.63-6.035.665-2.668 3.368-4.288 6.032-3.63.281.07 28.621 6.924 68.399 3.398 36.525-3.242 90.501-16.176 140.28-59.366 5.284-5.204 14.294-14.49 16.331-17.614 1.504-2.305 4.586-2.954 6.891-1.451 2.303 1.502 2.954 4.588 1.451 6.891-3.311 5.078-16.326 17.933-17.798 19.382-.074.072-.149.142-.227.209-51.958 45.138-108.319 58.578-146.45 61.904-8.434.736-16.347 1.03-23.606 1.03z" fill="#e0ebfc"/><path d="m59.28 232.571c-28.641 0-47.373-4.582-48.156-4.777-3.734-.931-6.017-4.725-5.087-8.459.931-3.729 4.725-6.013 8.452-5.089.282.068 28.362 6.837 67.742 3.348 36.212-3.215 89.733-16.031 139.099-58.844 5.561-5.479 14.177-14.419 16.014-17.237 2.104-3.222 6.438-4.135 9.659-2.034 1.563 1.019 2.634 2.584 3.018 4.409.385 1.824.035 3.689-.984 5.251-3.344 5.13-15.639 17.322-18.07 19.715-.107.104-.209.198-.313.289-52.369 45.494-109.166 59.039-147.592 62.391-7.89.688-15.891 1.037-23.782 1.037zm-46.467-14.53c-1.335 0-2.558.907-2.896 2.262-.396 1.593.578 3.213 2.173 3.61.764.189 19.034 4.658 47.189 4.658 7.775 0 15.659-.344 23.433-1.022 37.835-3.301 93.758-16.636 145.313-61.422.046-.04.095-.085.143-.132 1.451-1.428 14.332-14.154 17.518-19.041.436-.668.585-1.464.421-2.243-.164-.778-.621-1.446-1.288-1.881-1.373-.899-3.226-.508-4.124.868-2.385 3.657-12.793 14.195-16.603 17.946-.03.029-.061.059-.093.086-50.187 43.545-104.603 56.58-141.414 59.848-40.323 3.576-68.776-3.38-69.061-3.45-.237-.059-.475-.087-.711-.087z" fill="#3762cc"/><path d="m123.206 212.273-15.514 4.157c-1.348.361-1.819 2.034-.857 3.045l23.149 24.338c1.005 1.056 2.78.58 3.122-.836l7.879-32.652c.327-1.357-.916-2.57-2.265-2.209z" fill="#f9cfcf"/><path d="m205.572 173.874-13.057 9.353c-1.135.813-.986 2.544.27 3.152l30.236 14.628c1.312.635 2.806-.436 2.627-1.882l-4.123-33.335c-.171-1.385-1.763-2.083-2.897-1.27z" fill="#6bdddd"/><path d="m32.85 219.207 15.984 1.572c1.389.137 2.126 1.71 1.342 2.865l-18.871 27.786c-.819 1.206-2.648 1.026-3.216-.316l-13.097-30.93c-.544-1.285.485-2.685 1.874-2.548z" fill="#4671c6"/><path d="m77.576 220.026 16.001-1.385c1.391-.12 2.404 1.291 1.844 2.57l-13.457 30.775c-.584 1.335-2.415 1.494-3.22.279l-18.545-28.005c-.771-1.164-.015-2.728 1.375-2.849z" fill="#ffea92"/><path d="m166.599 196.954-14.55 6.801c-1.265.591-1.436 2.32-.312 3.148l27.042 19.923c1.173.865 2.838.086 2.928-1.369l2.058-33.526c.086-1.393-1.351-2.371-2.616-1.78z" fill="#f9a7a7"/><path d="m131.316 246.385c-1.038 0-2.047-.421-2.782-1.194l-23.148-24.338c-.942-.99-1.284-2.368-.914-3.685.371-1.318 1.381-2.316 2.703-2.67l15.514-4.157 15.514-4.156c1.324-.354 2.696.005 3.675.96s1.372 2.318 1.052 3.648l-7.879 32.652c-.33 1.369-1.38 2.445-2.739 2.809-.331.088-.665.131-.996.131zm-22.846-28.093 22.761 23.929 7.746-32.103z" fill="#3762cc"/><path d="m223.822 203.191c-.569 0-1.141-.126-1.672-.384l-30.236-14.628c-1.231-.596-2.037-1.765-2.153-3.129-.117-1.363.477-2.652 1.59-3.449l26.112-18.707c1.113-.797 2.526-.944 3.779-.395s2.101 1.688 2.269 3.046l4.123 33.334c.172 1.397-.432 2.774-1.576 3.594-.664.476-1.448.718-2.236.718zm-29.923-18.495 29.729 14.383-4.055-32.775z" fill="#3762cc"/><path d="m29.784 254.236c-.126 0-.252-.006-.379-.019-1.399-.138-2.61-1.028-3.159-2.323l-13.097-30.931c-.533-1.261-.367-2.671.443-3.772.811-1.103 2.11-1.683 3.469-1.546l15.983 1.571 15.984 1.572c1.362.134 2.521.954 3.102 2.193.58 1.238.468 2.653-.301 3.785l-18.871 27.787c-.719 1.06-1.911 1.683-3.174 1.683zm-12.846-34.584 12.877 30.412 18.554-27.321z" fill="#3762cc"/><path d="m80.277 255.089c-1.281 0-2.485-.64-3.2-1.72l-18.546-28.005c-.755-1.142-.851-2.559-.256-3.791.595-1.231 1.764-2.037 3.127-2.154l16.001-1.386 16.001-1.385c1.369-.117 2.653.476 3.451 1.586.797 1.111.946 2.523.399 3.777l-13.459 30.776c-.563 1.289-1.784 2.165-3.187 2.286-.11.011-.221.016-.331.016zm-18.261-31.708 18.233 27.534 13.232-30.259z" fill="#3762cc"/><path d="m179.87 229.186c-.806 0-1.606-.254-2.278-.749l-27.041-19.923c-1.102-.812-1.679-2.109-1.544-3.472.136-1.361.956-2.521 2.195-3.099l29.101-13.602c1.236-.58 2.654-.469 3.785.303 1.132.77 1.757 2.045 1.673 3.411l-2.059 33.525c-.086 1.403-.931 2.646-2.206 3.243-.518.243-1.073.363-1.626.363zm-26.73-23.734 26.588 19.59 2.024-32.963-14.306 6.687zm13.46-8.498h.01z" fill="#3762cc"/><path d="m196.72 154.91c28.316 0 46.716-4.48 47.673-4.718 2.669-.665 4.294-3.367 3.63-6.035-.665-2.668-3.368-4.288-6.032-3.63-.281.07-28.621 6.924-68.399 3.398-36.525-3.242-90.501-16.176-140.28-59.366-5.284-5.204-14.294-14.49-16.331-17.614-1.504-2.305-4.586-2.954-6.891-1.451-2.303 1.502-2.954 4.588-1.451 6.891 3.311 5.078 16.326 17.933 17.798 19.382.074.072.149.142.227.209 51.958 45.138 108.319 58.578 146.45 61.904 8.434.736 16.347 1.03 23.606 1.03z" fill="#a4c9ff"/><path d="m196.72 156.91c-7.891 0-15.892-.35-23.78-1.038-38.426-3.352-95.223-16.896-147.588-62.387-.108-.095-.21-.188-.311-.286-2.438-2.399-14.733-14.592-18.078-19.722-1.019-1.561-1.368-3.426-.983-5.25.384-1.825 1.455-3.391 3.017-4.409 3.224-2.101 7.557-1.189 9.659 2.034 1.837 2.818 10.453 11.758 16.014 17.237 49.365 42.813 102.887 55.629 139.099 58.844 39.378 3.492 67.461-3.278 67.739-3.348 3.737-.915 7.524 1.361 8.455 5.088.93 3.735-1.353 7.529-5.087 8.46-.783.195-19.516 4.777-48.156 4.777zm-183.916-90.224c-.558 0-1.121.156-1.623.483-.666.435-1.123 1.103-1.287 1.881-.164.779-.015 1.575.42 2.242 3.186 4.888 16.067 17.614 17.525 19.049.041.04.09.085.14.129 51.551 44.782 107.474 58.117 145.309 61.418 7.773.679 15.657 1.022 23.433 1.022 28.155 0 46.426-4.469 47.189-4.658 1.595-.397 2.569-2.018 2.173-3.611-.397-1.592-2.02-2.563-3.612-2.173-.277.069-28.726 7.023-69.055 3.449-36.812-3.268-91.228-16.303-141.414-59.848-.032-.027-.063-.057-.093-.086-3.81-3.751-14.218-14.289-16.604-17.946-.571-.875-1.527-1.351-2.501-1.351z" fill="#3762cc"/><path d="m132.794 136.612 15.514 4.157c1.348.361 1.819 2.034.857 3.045l-23.149 24.338c-1.005 1.056-2.78.58-3.122-.836l-7.879-32.652c-.327-1.357.916-2.57 2.265-2.209z" fill="#4671c6"/><path d="m50.054 97.918 13.057 9.353c1.135.813.986 2.544-.27 3.152l-30.236 14.628c-1.312.635-2.806-.436-2.627-1.882l4.122-33.334c.171-1.385 1.763-2.083 2.897-1.27z" fill="#6bdddd"/><path d="m223.15 143.49-15.984 1.572c-1.389.137-2.126 1.71-1.342 2.865l18.871 27.786c.819 1.206 2.648 1.026 3.216-.316l13.097-30.93c.544-1.285-.485-2.685-1.874-2.548z" fill="#e0ebfc"/><path d="m178.424 144.365-16.001-1.385c-1.391-.12-2.404 1.291-1.844 2.57l13.457 30.775c.584 1.335 2.415 1.494 3.22.279l18.545-28.005c.771-1.164.015-2.728-1.375-2.849z" fill="#ffea92"/><path d="m89.401 121.343 14.55 6.801c1.265.591 1.436 2.32.312 3.148l-27.042 19.923c-1.173.865-2.838.086-2.928-1.369l-2.058-33.526c-.086-1.393 1.351-2.371 2.616-1.78z" fill="#f9a7a7"/><g fill="#3762cc"><path d="m124.684 170.724c-.331 0-.665-.043-.994-.131-1.359-.363-2.409-1.439-2.739-2.809l-7.879-32.652c-.32-1.33.072-2.693 1.052-3.648s2.352-1.314 3.675-.96l15.514 4.156 15.514 4.157c1.322.354 2.332 1.352 2.703 2.67.37 1.316.028 2.694-.914 3.686l-23.149 24.337c-.737.773-1.745 1.194-2.783 1.194zm-7.661-36.267 7.746 32.103 22.761-23.929z"/><path d="m31.803 127.235c-.788 0-1.571-.242-2.235-.718-1.145-.819-1.748-2.196-1.576-3.594l4.123-33.334c.168-1.357 1.016-2.496 2.269-3.046 1.251-.549 2.664-.403 3.778.395l26.114 18.707c1.112.797 1.706 2.086 1.589 3.449-.116 1.364-.922 2.533-2.154 3.129l-30.235 14.629c-.533.257-1.104.383-1.673.383zm4.249-36.887-4.055 32.775 29.729-14.383zm25.894 18.549h.01z"/><path d="m226.217 178.52c-1.265 0-2.456-.623-3.176-1.683l-18.871-27.786c-.769-1.133-.881-2.549-.301-3.787.58-1.239 1.739-2.059 3.101-2.192l31.97-3.144c1.359-.133 2.657.444 3.468 1.545.811 1.103.977 2.513.443 3.773l-13.097 30.931c-.549 1.295-1.76 2.187-3.16 2.324-.126.013-.252.019-.377.019zm-18.587-31.495 18.555 27.321 12.878-30.412-15.717 1.546zm15.52-3.535h.01z"/><path d="m175.723 179.428c-.11 0-.221-.005-.332-.015-1.402-.121-2.623-.997-3.187-2.286l-13.458-30.775c-.548-1.255-.398-2.667.398-3.778.799-1.11 2.093-1.707 3.45-1.586l16.002 1.385 16.002 1.386c1.362.117 2.531.923 3.126 2.154.595 1.232.499 2.649-.256 3.79l-18.545 28.006c-.715 1.079-1.919 1.719-3.2 1.719zm-13.204-34.433 13.232 30.259 18.233-27.534z"/><path d="m76.13 153.575c-.553 0-1.108-.12-1.627-.362-1.274-.597-2.119-1.839-2.205-3.243l-2.059-33.524c-.084-1.365.541-2.641 1.672-3.41 1.132-.771 2.545-.885 3.786-.305l29.101 13.603c1.239.579 2.061 1.737 2.195 3.1s-.443 2.659-1.545 3.471l-27.04 19.923c-.673.493-1.472.747-2.278.747zm-1.882-37.107 2.024 32.964 26.587-19.59-14.306-6.687zm28.856 13.488h.01z"/><path d="m124.684 170.724c-.331 0-.665-.043-.994-.131-1.359-.363-2.409-1.439-2.739-2.809l-7.879-32.652c-.32-1.33.072-2.693 1.052-3.648s2.352-1.314 3.675-.96l15.514 4.156 15.514 4.157c1.322.354 2.332 1.352 2.703 2.67.37 1.316.028 2.694-.914 3.686l-23.149 24.337c-.737.773-1.745 1.194-2.783 1.194zm-7.661-36.267 7.746 32.103 22.761-23.929z"/><path d="m31.803 127.235c-.788 0-1.571-.242-2.235-.718-1.145-.819-1.748-2.196-1.576-3.594l4.123-33.334c.168-1.357 1.016-2.496 2.269-3.046 1.251-.549 2.664-.403 3.778.395l26.114 18.707c1.112.797 1.706 2.086 1.589 3.449-.116 1.364-.922 2.533-2.154 3.129l-30.235 14.629c-.533.257-1.104.383-1.673.383zm4.249-36.887-4.055 32.775 29.729-14.383zm25.894 18.549h.01z"/><path d="m226.217 178.52c-1.265 0-2.456-.623-3.176-1.683l-18.871-27.786c-.769-1.133-.881-2.549-.301-3.787.58-1.239 1.739-2.059 3.101-2.192l31.97-3.144c1.359-.133 2.657.444 3.468 1.545.811 1.103.977 2.513.443 3.773l-13.097 30.931c-.549 1.295-1.76 2.187-3.16 2.324-.126.013-.252.019-.377.019zm-18.587-31.495 18.555 27.321 12.878-30.412-15.717 1.546zm15.52-3.535h.01z"/><path d="m175.723 179.428c-.11 0-.221-.005-.332-.015-1.402-.121-2.623-.997-3.187-2.286l-13.458-30.775c-.548-1.255-.398-2.667.398-3.778.799-1.11 2.093-1.707 3.45-1.586l16.002 1.385 16.002 1.386c1.362.117 2.531.923 3.126 2.154.595 1.232.499 2.649-.256 3.79l-18.545 28.006c-.715 1.079-1.919 1.719-3.2 1.719zm-13.204-34.433 13.232 30.259 18.233-27.534z"/><path d="m76.13 153.575c-.553 0-1.108-.12-1.627-.362-1.274-.597-2.119-1.839-2.205-3.243l-2.059-33.524c-.084-1.365.541-2.641 1.672-3.41 1.132-.771 2.545-.885 3.786-.305l29.101 13.603c1.239.579 2.061 1.737 2.195 3.1s-.443 2.659-1.545 3.471l-27.04 19.923c-.673.493-1.472.747-2.278.747zm-1.882-37.107 2.024 32.964 26.587-19.59-14.306-6.687zm28.856 13.488h.01z"/><path d="m124.684 170.724c-.331 0-.665-.043-.994-.131-1.359-.363-2.409-1.439-2.739-2.809l-7.879-32.652c-.32-1.33.072-2.693 1.052-3.648s2.352-1.314 3.675-.96l15.514 4.156 15.514 4.157c1.322.354 2.332 1.352 2.703 2.67.37 1.316.028 2.694-.914 3.686l-23.149 24.337c-.737.773-1.745 1.194-2.783 1.194zm-7.661-36.267 7.746 32.103 22.761-23.929z"/><path d="m31.803 127.235c-.788 0-1.571-.242-2.235-.718-1.145-.819-1.748-2.196-1.576-3.594l4.123-33.334c.168-1.357 1.016-2.496 2.269-3.046 1.251-.549 2.664-.403 3.778.395l26.114 18.707c1.112.797 1.706 2.086 1.589 3.449-.116 1.364-.922 2.533-2.154 3.129l-30.235 14.629c-.533.257-1.104.383-1.673.383zm4.249-36.887-4.055 32.775 29.729-14.383zm25.894 18.549h.01z"/><path d="m226.217 178.52c-1.265 0-2.456-.623-3.176-1.683l-18.871-27.786c-.769-1.133-.881-2.549-.301-3.787.58-1.239 1.739-2.059 3.101-2.192l31.97-3.144c1.359-.133 2.657.444 3.468 1.545.811 1.103.977 2.513.443 3.773l-13.097 30.931c-.549 1.295-1.76 2.187-3.16 2.324-.126.013-.252.019-.377.019zm-18.587-31.495 18.555 27.321 12.878-30.412-15.717 1.546zm15.52-3.535h.01z"/><path d="m175.723 179.428c-.11 0-.221-.005-.332-.015-1.402-.121-2.623-.997-3.187-2.286l-13.458-30.775c-.548-1.255-.398-2.667.398-3.778.799-1.11 2.093-1.707 3.45-1.586l16.002 1.385 16.002 1.386c1.362.117 2.531.923 3.126 2.154.595 1.232.499 2.649-.256 3.79l-18.545 28.006c-.715 1.079-1.919 1.719-3.2 1.719zm-13.204-34.433 13.232 30.259 18.233-27.534z"/><path d="m76.13 153.575c-.553 0-1.108-.12-1.627-.362-1.274-.597-2.119-1.839-2.205-3.243l-2.059-33.524c-.084-1.365.541-2.641 1.672-3.41 1.132-.771 2.545-.885 3.786-.305l29.101 13.603c1.239.579 2.061 1.737 2.195 3.1s-.443 2.659-1.545 3.471l-27.04 19.923c-.673.493-1.472.747-2.278.747zm-1.882-37.107 2.024 32.964 26.587-19.59-14.306-6.687zm28.856 13.488h.01z"/></g><path d="m63.032 79.724c7.781 0 16.256-.315 25.299-1.104 40.865-3.565 101.266-17.968 156.949-66.342 2.225-1.933 2.463-5.304.529-7.528-1.933-2.225-5.304-2.463-7.528-.529-102.421 88.974-222.558 60.386-223.762 60.089-2.855-.711-5.756 1.028-6.468 3.89-.712 2.86 1.029 5.756 3.89 6.468 1.025.255 20.749 5.056 51.091 5.056z" fill="#e0ebfc"/><path d="m63.032 81.724c-30.7 0-50.737-4.907-51.575-5.116-3.926-.977-6.324-4.966-5.347-8.892.473-1.901 1.659-3.505 3.341-4.516 1.68-1.01 3.651-1.304 5.551-.831 1.189.293 120.491 28.494 221.968-59.659 1.479-1.286 3.37-1.92 5.325-1.78 1.955.138 3.739 1.028 5.024 2.508 1.285 1.479 1.918 3.37 1.78 5.325s-1.028 3.739-2.508 5.024c-56.087 48.726-116.926 63.234-158.086 66.825-8.459.738-17.029 1.112-25.473 1.112zm-49.807-15.574c-.599 0-1.188.162-1.714.479-.765.46-1.304 1.188-1.52 2.053-.215.865-.08 1.763.379 2.526s1.188 1.303 2.054 1.519c.819.204 20.394 4.997 50.608 4.997 8.328 0 16.781-.369 25.125-1.096 40.57-3.54 100.534-17.839 155.812-65.86.673-.585 1.078-1.396 1.141-2.285s-.225-1.749-.81-2.421c-.585-.675-1.396-1.079-2.285-1.143-.896-.055-1.749.227-2.421.81-103.027 89.501-224.342 60.823-225.556 60.522-.269-.067-.543-.101-.813-.101z" fill="#3762cc"/><path d="m133.912 59.721-16.626 4.455c-1.445.387-1.949 2.18-.918 3.264l24.809 26.083c1.077 1.132 2.979.622 3.345-.896l8.443-34.993c.351-1.454-.982-2.754-2.427-2.367z" fill="#ffea92"/><path d="m222.459 16.968-13.993 10.024c-1.216.871-1.057 2.726.29 3.378l32.404 15.677c1.406.68 3.007-.467 2.816-2.017l-4.418-35.725c-.184-1.485-1.889-2.232-3.105-1.361z" fill="#f9a7a7"/><path d="m181.721 41.893-15.593 7.289c-1.355.633-1.539 2.486-.335 3.374l28.98 21.352c1.258.927 3.042.093 3.138-1.467l2.206-35.929c.092-1.493-1.448-2.541-2.803-1.907z" fill="#a4c9ff"/><path d="m37.078 67.705 17.13 1.685c1.489.146 2.279 1.833 1.438 3.07l-20.224 29.779c-.878 1.292-2.838 1.099-3.447-.339l-14.035-33.148c-.583-1.378.52-2.878 2.009-2.731z" fill="#f9cfcf"/><path d="m85.011 67.982 17.148-1.484c1.49-.129 2.576 1.384 1.977 2.754l-14.422 32.981c-.626 1.431-2.588 1.601-3.451.299l-19.874-30.012c-.826-1.247-.017-2.924 1.474-3.053z" fill="#4671c6"/><path d="m142.604 96.136c-1.073 0-2.117-.436-2.877-1.235l-24.809-26.083c-.975-1.024-1.328-2.449-.945-3.812s1.428-2.395 2.794-2.762l33.253-8.91c1.369-.366 2.788.006 3.802.993 1.013.988 1.419 2.399 1.088 3.774l-8.443 34.993c-.343 1.416-1.429 2.529-2.835 2.905-.34.092-.686.137-1.028.137zm8.417-38.972-33.218 8.943 24.822 26.037z" fill="#3762cc"/><path d="m242.019 48.244c-.59 0-1.181-.131-1.73-.397l-32.403-15.676c-1.273-.616-2.106-1.826-2.228-3.236s.493-2.744 1.644-3.568l27.985-20.048c1.151-.825 2.61-.976 3.908-.409 1.296.568 2.174 1.746 2.348 3.151l4.418 35.725c.179 1.443-.445 2.867-1.628 3.716-.688.491-1.499.742-2.314.742zm-4.448-39.693-13.947 10.044-13.993 10.023 32.399 15.628zm-15.112 8.418h.01z" fill="#3762cc"/><path d="m195.943 76.292c-.834 0-1.661-.263-2.356-.774l-28.98-21.352c-1.14-.84-1.735-2.183-1.596-3.59.14-1.408.988-2.606 2.271-3.206l31.186-14.577c1.283-.6 2.748-.48 3.918.315 1.169.796 1.815 2.114 1.729 3.526l-2.206 35.93c-.089 1.452-.964 2.737-2.282 3.354-.538.251-1.112.374-1.684.374zm2.178-39.903-15.554 7.316-15.593 7.288 28.985 21.304zm-16.4 5.505h.01z" fill="#3762cc"/><path d="m33.793 105.103c-.13 0-.26-.007-.391-.02-1.448-.143-2.7-1.063-3.269-2.403l-14.035-33.148c-.552-1.305-.38-2.763.459-3.903.838-1.14 2.17-1.737 3.588-1.599l34.259 3.369c1.409.139 2.608.986 3.209 2.268s.484 2.745-.312 3.916l-20.224 29.779c-.744 1.096-1.977 1.741-3.284 1.741zm-14.04-37.092 14.064 33.108 20.175-29.783z" fill="#3762cc"/><path d="m87.906 105.416c-1.325 0-2.57-.662-3.311-1.78l-19.874-30.012c-.781-1.18-.88-2.645-.265-3.92.615-1.274 1.824-2.107 3.234-2.229l34.296-2.969c1.406-.134 2.745.491 3.57 1.642s.979 2.61.411 3.906l-14.422 32.981c-.583 1.334-1.846 2.24-3.297 2.365-.113.011-.228.016-.342.016zm14.398-36.966-34.269 3.009 19.896 29.969z" fill="#3762cc"/></svg>