<?xml version="1.0" standalone="no"?>
<!DOCTYPE svg PUBLIC "-//W3C//DTD SVG 20010904//EN"
 "http://www.w3.org/TR/2001/REC-SVG-20010904/DTD/svg10.dtd">
<svg version="1.0" xmlns="http://www.w3.org/2000/svg"
 width="7064.000000pt" height="5000.000000pt" viewBox="0 0 7064.000000 5000.000000"
 preserveAspectRatio="xMidYMid meet">

<g transform="translate(0.000000,5000.000000) scale(0.100000,-0.100000)"
fill="#000000" stroke="none">
<path d="M50663 43385 c-147 -27 -302 -92 -382 -161 -94 -81 -242 -305 -321
-485 -127 -287 -177 -593 -167 -1007 11 -461 75 -745 251 -1107 l84 -173 -87
-22 c-47 -12 -151 -34 -231 -50 -175 -34 -239 -57 -333 -120 -246 -165 -428
-488 -503 -895 -36 -192 -21 -682 20 -698 7 -3 237 -58 512 -122 274 -64 500
-118 501 -118 1 -1 -12 -115 -27 -252 -49 -417 -91 -864 -93 -970 -2 -92 4
-128 77 -450 43 -192 82 -367 87 -387 l10 -38 974 0 c536 0 975 3 975 7 0 3
-10 56 -21 117 -19 96 -21 133 -16 271 11 283 110 1061 154 1198 14 45 58 168
98 272 164 430 179 551 95 802 -16 49 -34 124 -40 168 -36 253 -138 524 -262
693 -54 74 -52 69 -68 202 -36 304 -96 577 -160 726 -60 141 -80 224 -80 334
l-1 95 -33 -75 c-126 -286 -279 -451 -453 -490 -53 -12 -64 -24 -57 -60 4 -24
4 -24 -5 -2 -6 12 -8 28 -5 35 3 8 -2 14 -11 14 -11 0 -14 -5 -9 -16 4 -9 8
-28 8 -43 1 -14 4 -24 9 -21 4 2 7 -1 7 -6 0 -12 -26 -15 -33 -3 -2 4 -2 2 -1
-5 2 -6 -2 -14 -9 -17 -7 -3 0 -3 16 0 22 5 27 3 27 -12 0 -16 -2 -17 -11 -4
-9 13 -10 13 -7 0 3 -8 33 -31 68 -50 74 -40 79 -49 205 -300 89 -179 128
-269 156 -370 19 -66 25 -146 11 -166 -24 -37 -106 -43 -243 -19 -466 81 -913
382 -1128 759 -62 110 -66 99 46 134 54 17 121 36 149 42 l51 11 7 91 c13 185
2 384 -29 528 -14 65 -14 65 22 171 37 106 37 106 19 143 -58 123 -88 289 -67
381 18 80 45 107 112 113 49 4 59 1 87 -23 37 -31 77 -103 87 -158 4 -21 11
-40 16 -43 16 -10 242 27 378 62 243 62 499 179 685 312 43 31 91 71 107 89
l28 33 3 -78 3 -77 13 78 c15 94 16 298 1 387 -35 225 -170 459 -347 606 -74
61 -225 140 -342 177 -168 55 -411 72 -577 42z"/>
<path d="M50645 40899 c6 -30 15 -37 15 -11 0 11 -4 23 -9 27 -6 3 -8 -4 -6
-16z"/>
<path d="M50664 40858 c-4 -6 -3 -8 4 -4 6 3 20 -6 31 -20 12 -15 24 -24 28
-21 3 4 13 1 22 -6 14 -11 14 -10 3 5 -8 10 -17 16 -20 15 -4 -1 -7 1 -7 4 0
12 -28 39 -41 39 -7 0 -16 -5 -20 -12z"/>
<path d="M50789 40778 c-5 -22 -5 -69 1 -73 4 -3 8 1 7 8 -1 35 4 48 16 41 8
-5 8 -2 -2 9 -12 16 -20 21 -22 15z"/>
<path d="M50830 40733 c8 -3 8 -9 0 -18 -7 -9 -8 -15 -1 -19 6 -4 8 -14 5 -24
-5 -14 -4 -14 4 -2 6 8 8 18 5 24 -4 5 0 7 9 4 8 -4 15 -1 15 7 0 7 -7 11 -14
8 -8 -3 -13 0 -11 7 2 7 -3 14 -10 16 -7 1 -8 0 -2 -3z"/>
<path d="M50855 40669 c-4 -6 -5 -12 -2 -15 2 -3 7 2 10 11 7 17 1 20 -8 4z"/>
<path d="M50878 40663 c-7 -9 -7 -13 1 -13 6 0 11 5 11 12 0 6 6 3 14 -8 14
-19 15 -19 35 2 l20 22 -35 -1 c-19 -1 -40 -7 -46 -14z m52 -3 c0 -5 -4 -10
-10 -10 -5 0 -10 5 -10 10 0 6 5 10 10 10 6 0 10 -4 10 -10z"/>
<path d="M50965 40650 c3 -5 0 -10 -8 -10 -8 0 -21 -8 -28 -17 -11 -15 -11
-16 1 -5 20 17 29 15 25 -7 -2 -11 6 -27 18 -38 l22 -18 -19 23 c-14 16 -16
22 -5 22 10 0 11 2 2 8 -8 5 -9 13 -3 22 13 20 12 30 -1 30 -5 0 -7 -4 -4 -10z"/>
<path d="M51006 40645 c4 -8 8 -15 10 -15 2 0 4 7 4 15 0 8 -4 15 -10 15 -5 0
-7 -7 -4 -15z"/>
<path d="M50896 40627 c3 -10 9 -15 12 -12 3 3 0 11 -7 18 -10 9 -11 8 -5 -6z"/>
<path d="M50990 40620 c8 -5 20 -10 25 -10 6 0 3 5 -5 10 -8 5 -19 10 -25 10
-5 0 -3 -5 5 -10z"/>
<path d="M51026 40564 c-4 -9 -4 -19 -1 -22 3 -3 5 0 5 7 0 7 4 9 10 6 6 -3 7
1 4 9 -8 20 -10 20 -18 0z"/>
<path d="M51065 40546 c-26 -11 -27 -13 -11 -19 10 -4 21 -5 24 -2 3 3 -1 5
-9 5 -8 1 0 7 16 15 38 17 20 19 -20 1z"/>
<path d="M37596 38189 c-99 -10 -227 -42 -315 -79 -215 -88 -360 -252 -436
-490 -25 -78 -26 -94 -21 -190 13 -216 74 -750 133 -1167 l17 -122 65 -72 66
-71 0 228 c0 240 7 283 46 305 30 16 43 84 41 226 l-1 132 102 40 c291 113
529 155 872 155 230 -1 387 -17 564 -59 98 -24 191 -57 191 -69 0 -3 20 -94
45 -201 45 -192 46 -201 53 -427 l7 -232 75 100 c86 115 87 116 140 486 70
487 96 855 71 1028 -28 194 -117 291 -308 336 -52 12 -100 15 -203 11 -134 -5
-136 -5 -305 38 -352 90 -648 121 -899 94z"/>
<path d="M38650 34747 c0 -5 -6 -7 -14 -4 -12 5 -56 -25 -56 -38 0 -10 29 8
34 21 4 12 10 12 26 4 11 -6 18 -15 15 -21 -4 -5 -11 -7 -16 -4 -5 3 -6 -1 -2
-11 5 -15 7 -15 15 0 5 8 9 19 9 23 1 5 5 15 9 24 6 11 5 16 -6 16 -7 0 -14
-5 -14 -10z"/>
<path d="M37486 34703 c-6 -14 -5 -15 5 -6 7 7 10 15 7 18 -3 3 -9 -2 -12 -12z"/>
<path d="M37525 34692 c-23 -8 -30 -29 -10 -29 8 0 12 5 8 10 -3 5 5 7 18 3
13 -3 18 -3 11 0 -6 3 -10 10 -6 15 3 5 4 9 2 8 -2 -1 -12 -4 -23 -7z"/>
<path d="M38555 34691 c-6 -11 13 -26 22 -17 4 3 1 6 -6 6 -7 0 -9 5 -6 10 3
6 4 10 1 10 -3 0 -7 -4 -11 -9z"/>
<path d="M38610 34681 c0 -6 4 -13 10 -16 6 -3 7 1 4 9 -7 18 -14 21 -14 7z"/>
<path d="M37573 34664 c0 -7 3 -12 5 -9 3 3 16 -2 29 -10 33 -22 29 -10 -5 14
-22 16 -29 17 -29 5z"/>
<path d="M38533 34665 c0 -8 4 -12 9 -9 5 3 6 10 3 15 -9 13 -12 11 -12 -6z"/>
<path d="M38583 34640 c-10 -14 -9 -19 2 -23 15 -7 26 14 16 31 -4 7 -11 5
-18 -8z"/>
<path d="M37535 34629 c-4 -6 -5 -12 -2 -15 2 -3 7 2 10 11 7 17 1 20 -8 4z"/>
<path d="M37569 34623 c-8 -9 -9 -14 -2 -10 6 4 13 2 15 -5 3 -8 7 -6 11 5 9
23 -8 30 -24 10z"/>
<path d="M37647 34622 c2 -3 -7 -12 -19 -19 l-23 -14 25 7 c32 8 36 12 23 23
-5 5 -8 6 -6 3z"/>
<path d="M38456 34618 c3 -5 10 -6 15 -3 13 9 11 12 -6 12 -8 0 -12 -4 -9 -9z"/>
<path d="M37687 34589 c7 -7 15 -10 18 -7 3 3 -2 9 -12 12 -14 6 -15 5 -6 -5z"/>
<path d="M38431 34586 c-9 -11 -8 -15 4 -20 10 -4 14 -2 9 5 -4 6 0 15 7 20 8
5 9 9 3 9 -6 0 -17 -6 -23 -14z"/>
<path d="M37574 34569 c14 -11 24 -24 22 -28 -3 -4 12 -24 32 -44 34 -33 38
-35 39 -16 1 14 -3 19 -12 16 -19 -8 -27 4 -14 20 14 16 33 18 23 1 -4 -6 -3
-8 4 -5 15 10 8 40 -11 43 -9 1 -20 -3 -24 -8 -3 -7 -1 -8 5 -4 17 11 15 -9
-3 -24 -14 -11 -19 -7 -16 13 2 9 -50 56 -63 57 -5 0 3 -9 18 -21z"/>
<path d="M37641 34581 c-10 -7 -7 -9 12 -8 14 1 23 5 20 10 -6 9 -15 9 -32 -2z"/>
<path d="M38383 34573 c0 -9 4 -10 14 -2 7 6 13 12 13 14 0 1 -6 2 -13 2 -8 0
-14 -6 -14 -14z"/>
<path d="M38477 34553 c-4 -3 -2 -12 3 -18 8 -9 2 -20 -20 -39 -18 -14 -28
-26 -23 -26 12 0 63 49 63 60 0 6 -5 10 -11 10 -5 0 -7 5 -4 10 7 11 2 13 -8
3z"/>
<path d="M38451 34533 c-1 -14 -9 -23 -23 -26 l-23 -4 23 -2 c24 -1 38 19 29
41 -3 7 -6 3 -6 -9z"/>
<path d="M37835 34531 c6 -11 2 -13 -21 -7 -24 5 -26 4 -11 -5 10 -6 24 -8 32
-5 7 2 30 -4 51 -14 l37 -19 -23 24 c-13 13 -27 22 -32 19 -5 -3 -16 0 -25 8
-14 11 -16 11 -8 -1z"/>
<path d="M37899 34527 c7 -9 23 -17 34 -17 22 0 18 10 -5 14 -7 1 -20 6 -28
11 -13 8 -13 7 -1 -8z"/>
<path d="M38420 34529 c0 -5 5 -7 10 -4 6 3 10 8 10 11 0 2 -4 4 -10 4 -5 0
-10 -5 -10 -11z"/>
<path d="M37997 34519 c7 -7 15 -10 18 -7 3 3 -2 9 -12 12 -14 6 -15 5 -6 -5z"/>
<path d="M38070 34518 c-12 -8 -12 -9 2 -5 9 3 19 1 22 -6 3 -9 5 -9 5 0 1 18
-13 23 -29 11z"/>
<path d="M38190 34520 c19 -13 30 -13 30 0 0 6 -10 10 -22 10 -19 0 -20 -2 -8
-10z"/>
<path d="M38155 34500 c-3 -5 3 -10 15 -10 12 0 18 5 15 10 -3 6 -10 10 -15
10 -5 0 -12 -4 -15 -10z"/>
<path d="M37778 34493 c7 -3 16 -2 19 1 4 3 -2 6 -13 5 -11 0 -14 -3 -6 -6z"/>
<path d="M37865 34490 c3 -5 11 -10 16 -10 6 0 7 5 4 10 -3 6 -11 10 -16 10
-6 0 -7 -4 -4 -10z"/>
<path d="M38268 34483 c7 -3 16 -2 19 1 4 3 -2 6 -13 5 -11 0 -14 -3 -6 -6z"/>
<path d="M38405 34481 c-3 -5 -2 -12 3 -15 5 -3 9 1 9 9 0 17 -3 19 -12 6z"/>
<path d="M37689 34467 c7 -7 14 -8 21 -1 6 6 2 10 -12 11 -16 2 -18 -1 -9 -10z"/>
<path d="M37705 34449 c-16 -8 -15 -8 7 -4 16 3 28 0 30 -7 3 -8 6 -7 10 3 7
17 -17 21 -47 8z"/>
<path d="M38330 34445 c-9 -10 -9 -15 -1 -15 6 0 11 5 11 11 0 6 6 9 13 6 6
-2 11 -10 9 -16 -1 -7 2 -10 8 -6 8 5 7 11 -1 21 -15 18 -23 18 -39 -1z"/>
<path d="M37915 34389 c-4 -6 -4 -13 -1 -16 3 -4 6 -1 6 5 0 6 8 13 18 15 15
4 15 5 0 6 -9 0 -20 -4 -23 -10z"/>
<path d="M38183 34390 c-29 -12 -30 -20 -1 -12 13 3 19 1 15 -5 -5 -7 1 -9 15
-5 21 6 21 7 4 10 -15 3 -16 6 -5 13 18 11 1 10 -28 -1z"/>
<path d="M37825 34380 c-2 -3 5 -6 15 -7 11 -1 22 2 24 5 3 4 -4 8 -15 8 -11
0 -22 -3 -24 -6z"/>
<path d="M37950 34380 c-18 -12 -2 -12 25 0 13 6 15 9 5 9 -8 0 -22 -4 -30 -9z"/>
<path d="M37955 34350 c-3 -5 -1 -10 4 -10 6 0 11 5 11 10 0 6 -2 10 -4 10 -3
0 -8 -4 -11 -10z"/>
<path d="M38040 34349 c0 -5 5 -7 10 -4 6 3 10 8 10 11 0 2 -4 4 -10 4 -5 0
-10 -5 -10 -11z"/>
<path d="M39390 33920 c0 -37 -110 -402 -171 -563 -117 -313 -308 -665 -460
-847 -251 -302 -549 -459 -794 -420 -427 68 -909 659 -1315 1612 -50 118 -74
162 -85 160 -43 -8 -801 -282 -1035 -375 -268 -105 -289 -116 -380 -203 -176
-169 -348 -430 -710 -1079 -94 -170 -191 -337 -215 -370 -52 -74 -155 -250
-267 -455 -96 -175 -338 -643 -338 -653 0 -4 334 -7 743 -7 l743 0 139 240
c139 240 139 240 154 212 8 -15 55 -121 106 -237 l91 -210 2386 -3 2386 -2 16
67 c22 98 62 325 86 493 12 79 23 146 24 148 2 2 66 -81 142 -184 77 -102 195
-261 264 -353 l125 -166 688 -3 c378 -1 687 0 687 2 0 2 -67 117 -148 257
-380 651 -620 1111 -757 1454 -59 146 -111 253 -177 359 -238 383 -664 720
-1118 884 -120 43 -791 262 -803 262 -4 0 -7 -9 -7 -20z"/>
<path d="M55715 29467 c-14 -11 -15 -16 -5 -22 9 -5 11 -4 6 3 -4 7 -1 12 8
12 9 0 16 5 16 10 0 13 -3 13 -25 -3z"/>
<path d="M55617 29394 c-3 -3 -3 -12 -1 -19 4 -10 -1 -12 -15 -8 -12 3 -21 1
-21 -6 0 -5 6 -8 14 -5 9 3 14 0 12 -9 -3 -21 -27 -48 -36 -42 -5 3 -12 1 -15
-5 -5 -8 -12 -7 -23 2 -14 10 -15 10 -5 -1 15 -17 -4 -41 -27 -34 -11 4 -12 3
-2 -4 9 -7 7 -15 -12 -32 -18 -17 -25 -19 -29 -9 -3 7 -5 3 -4 -8 1 -21 32
-28 32 -8 0 15 16 35 24 29 9 -5 49 34 51 50 1 6 5 9 10 8 12 -3 64 55 67 77
3 19 -9 34 -20 24z m-67 -117 c0 -2 -10 -12 -22 -23 l-23 -19 19 23 c18 21 26
27 26 19z"/>
<path d="M55450 29280 c-24 -15 -7 -18 20 -3 14 7 18 13 10 13 -8 0 -22 -4
-30 -10z"/>
<path d="M55365 29220 c-4 -6 -12 -7 -18 -3 -9 5 -9 3 0 -8 6 -8 12 -17 12
-21 1 -5 4 -8 9 -9 4 0 13 -5 20 -11 6 -6 12 -7 12 -2 0 5 4 2 10 -6 8 -12 10
-12 16 3 3 9 11 14 18 10 7 -4 6 -1 -2 9 -7 8 -11 22 -9 29 2 8 2 11 0 6 -3
-4 -9 -4 -15 -1 -6 4 -6 -2 1 -14 16 -29 -4 -38 -23 -10 -9 12 -16 17 -16 10
0 -7 -5 -10 -10 -7 -8 5 -7 11 1 21 6 8 9 14 6 14 -3 0 -9 -5 -12 -10z"/>
<path d="M55300 29195 c-7 -8 -15 -13 -19 -11 -4 3 -13 1 -20 -3 -9 -6 -4 -8
14 -8 14 0 29 6 32 14 3 8 12 12 20 9 8 -3 11 -1 8 4 -9 14 -21 12 -35 -5z"/>
<path d="M55222 29154 c-6 -7 -18 -12 -25 -10 -6 1 -9 1 -4 -1 4 -3 4 -10 1
-16 -5 -9 -4 -9 6 0 7 6 19 9 28 6 9 -4 13 -2 9 4 -4 6 -2 13 5 15 7 3 8 7 3
10 -6 3 -16 0 -23 -8z"/>
<path d="M55266 29135 c-11 -8 -15 -15 -9 -15 6 0 16 7 23 15 16 19 11 19 -14
0z"/>
<path d="M55097 29102 c-15 -16 -15 -18 1 -18 10 0 18 8 18 18 0 10 -1 18 -2
18 0 0 -8 -8 -17 -18z"/>
<path d="M55315 29111 c-9 -15 14 -24 29 -12 7 6 16 9 19 6 4 -3 5 -2 2 2 -9
11 -43 14 -50 4z"/>
<path d="M55021 29091 c-10 -6 -9 -10 3 -14 8 -3 18 -2 21 3 8 13 -9 20 -24
11z"/>
<path d="M55313 29065 c0 -8 4 -12 9 -9 4 3 8 9 8 15 0 5 -4 9 -8 9 -5 0 -9
-7 -9 -15z"/>
<path d="M54763 29054 c0 -7 7 -10 15 -6 11 4 13 1 7 -9 -5 -8 -4 -11 0 -6 16
14 13 36 -4 34 -10 0 -18 -6 -18 -13z"/>
<path d="M54945 29060 c-21 -9 -19 -9 38 -14 25 -2 27 0 11 11 -20 15 -22 15
-49 3z"/>
<path d="M55090 29066 c0 -2 7 -7 16 -10 8 -3 12 -2 9 4 -6 10 -25 14 -25 6z"/>
<path d="M55213 29024 c9 -11 17 -24 17 -29 0 -4 -8 -1 -17 6 -17 13 -17 12
-4 -4 15 -18 15 -18 28 0 8 10 18 18 23 18 6 0 10 3 10 8 0 8 -4 9 -25 1 -8
-4 -23 0 -33 7 -16 13 -16 12 1 -7z"/>
<path d="M55064 28946 c14 -12 16 -16 5 -16 -12 0 -12 -2 1 -10 8 -5 20 -10
25 -10 6 0 4 4 -4 9 -9 6 -10 11 -2 15 6 4 16 4 23 0 7 -4 8 -3 4 5 -4 7 -13
10 -19 8 -7 -2 -21 0 -32 5 -20 9 -20 9 -1 -6z"/>
<path d="M55043 28894 c3 -4 2 -16 -4 -28 -9 -19 -9 -19 4 -4 8 10 18 14 23
10 4 -4 2 1 -5 11 -7 9 -16 17 -19 17 -3 0 -2 -3 1 -6z"/>
<path d="M54976 28871 c8 -8 43 -8 38 0 -2 4 -13 7 -24 6 -10 -1 -17 -3 -14
-6z"/>
<path d="M54940 28859 c0 -5 5 -7 10 -4 6 3 10 8 10 11 0 2 -4 4 -10 4 -5 0
-10 -5 -10 -11z"/>
<path d="M54963 28833 c0 -8 6 -9 16 -4 9 5 23 11 31 14 8 3 1 4 -16 4 -17 -1
-31 -7 -31 -14z"/>
<path d="M54926 28832 c-3 -6 -1 -14 5 -17 15 -10 25 3 12 16 -7 7 -13 7 -17
1z"/>
<path d="M54879 28800 c-15 -16 -15 -17 8 -17 18 0 21 2 12 8 -10 6 -11 9 -1
9 6 0 12 5 12 10 0 15 -13 11 -31 -10z"/>
<path d="M54796 28787 c3 -10 9 -15 12 -12 3 3 0 11 -7 18 -10 9 -11 8 -5 -6z"/>
<path d="M54808 28753 c7 -3 16 -2 19 1 4 3 -2 6 -13 5 -11 0 -14 -3 -6 -6z"/>
<path d="M56945 27940 c-388 -465 -463 -565 -677 -910 -456 -734 -762 -1439
-909 -2095 -59 -265 -80 -445 -86 -725 -5 -237 -2 -282 31 -650 62 -667 112
-1153 157 -1522 l12 -98 1427 0 1427 0 7 148 c27 577 87 1323 131 1627 22 149
56 305 66 299 14 -8 145 -246 234 -424 280 -560 448 -1103 481 -1557 l7 -93
897 0 896 0 -18 178 c-127 1230 -406 2753 -683 3727 -121 425 -374 1187 -482
1450 -100 244 -112 257 -283 324 -139 56 -298 109 -780 262 -708 225 -946 307
-1276 439 -97 38 -182 70 -189 70 -7 0 -183 -203 -390 -450z"/>
<path d="M53935 28094 c-159 -74 -310 -144 -335 -156 -376 -174 -1003 -469
-1170 -551 -312 -154 -708 -365 -728 -389 -5 -7 -48 -114 -95 -238 -47 -124
-119 -313 -160 -420 -106 -275 -302 -790 -532 -1390 -217 -569 -312 -817 -356
-930 -16 -41 -39 -104 -52 -139 l-24 -64 33 -131 c75 -300 142 -656 184 -976
25 -193 50 -482 50 -576 0 -39 3 -99 6 -133 l7 -61 472 0 472 0 43 108 c23 59
89 235 146 392 57 157 110 296 117 310 11 24 12 22 14 -25 8 -132 68 -551 109
-752 l7 -33 563 0 563 0 6 33 c3 17 30 250 60 517 212 1849 370 3005 560 4075
109 617 255 1299 351 1643 4 15 2 22 -7 21 -8 0 -144 -61 -304 -135z"/>
<path d="M32535 28186 c-260 -38 -500 -145 -619 -277 -68 -76 -179 -247 -250
-388 -167 -330 -242 -655 -253 -1096 -14 -546 77 -1078 252 -1475 83 -189 249
-490 270 -490 5 0 33 6 60 13 l50 13 37 110 c90 267 109 530 58 812 -11 59
-26 129 -34 157 l-16 50 57 89 c56 88 56 89 39 115 -30 46 -66 131 -93 220
-21 70 -26 108 -27 201 -1 101 2 120 21 156 43 81 154 98 231 37 46 -37 106
-152 123 -238 7 -36 16 -70 19 -76 9 -14 212 12 368 47 374 83 754 259 1029
473 118 92 137 110 160 149 l20 33 7 -38 c3 -21 6 -69 7 -108 1 -65 2 -67 10
-30 17 76 22 337 10 438 -42 331 -198 620 -446 824 -150 123 -364 218 -592
263 -136 27 -371 35 -498 16z"/>
<path d="M47372 28190 c-232 -33 -463 -154 -623 -328 -166 -180 -276 -415
-287 -608 -6 -112 6 -153 62 -214 91 -98 116 -172 116 -337 0 -77 -7 -144 -21
-209 -11 -53 -19 -97 -17 -99 2 -2 41 -1 87 2 l83 6 49 75 c34 51 49 85 49
107 0 79 30 190 65 241 48 69 115 116 174 122 43 4 50 1 79 -27 93 -94 94
-333 2 -530 -17 -35 -30 -64 -30 -66 0 -3 285 -229 375 -297 150 -114 333
-213 456 -248 95 -27 273 -37 361 -21 102 20 166 57 213 124 49 71 54 79 200
385 245 513 335 802 337 1077 1 299 -117 471 -368 535 -43 11 -110 20 -152 20
-66 0 -82 4 -136 34 -157 86 -466 199 -651 237 -113 23 -325 33 -423 19z"/>
<path d="M55109 27489 c-156 -180 -323 -442 -420 -659 l-38 -85 49 -25 c28
-13 50 -30 50 -36 0 -7 -13 -50 -29 -96 -262 -749 -486 -1774 -571 -2613 -66
-662 -73 -1093 -28 -1837 l11 -198 365 0 364 0 -6 48 c-31 259 -43 1588 -18
2012 31 519 66 878 137 1380 25 179 70 525 100 770 30 245 57 464 60 486 6 41
6 41 70 59 35 9 66 24 69 32 11 29 6 217 -9 322 -16 103 -77 417 -93 475 l-8
29 -55 -64z"/>
<path d="M33831 25453 c-158 -448 -405 -702 -676 -694 -33 1 -57 0 -55 -3 3
-3 31 -6 63 -7 49 -2 55 -4 44 -18 -10 -12 -9 -13 2 -7 11 7 12 1 7 -30 -4
-22 -7 -61 -7 -89 0 -31 -6 -56 -16 -67 -10 -11 -12 -18 -5 -18 7 0 12 -16 12
-37 l0 -38 137 -70 136 -71 39 -114 c224 -663 418 -1598 468 -2260 6 -80 13
-161 15 -180 3 -19 9 -471 14 -1005 17 -1673 55 -2685 131 -3455 12 -113 22
-216 23 -230 2 -22 -7 -28 -84 -61 -330 -143 -1193 -294 -1909 -334 -58 -4
-126 -8 -152 -10 -57 -3 -55 -17 -29 200 l19 150 176 304 c97 167 175 306 173
308 -2 2 -36 14 -74 27 l-71 24 -317 -549 c-175 -302 -321 -552 -325 -554 -5
-3 -341 187 -747 421 -406 234 -875 505 -1043 602 -168 96 -309 179 -314 183
-7 7 117 242 441 834 57 104 106 191 108 193 2 2 84 -45 182 -105 98 -61 412
-246 698 -413 536 -313 700 -413 748 -458 23 -22 29 -24 37 -12 29 46 370 826
370 846 0 6 -62 47 -137 90 -228 128 -579 340 -717 432 -72 48 -169 123 -216
168 -47 44 -154 138 -239 210 -179 150 -171 143 -194 170 -17 21 -15 26 101
240 326 601 615 1130 621 1137 4 4 157 -79 339 -184 l332 -191 -30 -38 -31
-39 93 -54 c537 -315 792 -457 800 -445 5 7 15 25 24 41 8 15 17 27 20 27 3 0
634 -362 651 -374 2 -1 -242 -424 -553 -961 l-174 -300 22 -15 c13 -8 40 -30
61 -49 31 -28 40 -32 48 -20 8 13 247 425 685 1184 89 154 160 283 158 286 -2
4 -314 186 -693 404 l-689 398 5 471 c6 522 0 649 -47 992 -89 654 -244 1407
-417 2027 -37 132 -51 167 -64 167 -76 0 -1026 -214 -1117 -252 -160 -66 -313
-195 -416 -352 -110 -166 -280 -537 -359 -782 -55 -172 -88 -329 -122 -582
-28 -214 -61 -392 -136 -742 -112 -524 -160 -712 -229 -905 -180 -504 -255
-802 -267 -1061 -7 -139 6 -233 43 -313 45 -99 224 -252 541 -463 l142 -95
-336 -618 c-287 -527 -334 -619 -321 -629 8 -6 203 -119 432 -251 l417 -240
-5 -35 c-2 -19 -25 -154 -50 -300 -115 -668 -210 -1370 -316 -2328 -49 -440
-122 -1184 -117 -1187 1 -1 193 -32 427 -69 234 -37 428 -71 431 -74 10 -11
43 -668 43 -862 1 -210 -4 -244 -119 -760 -110 -490 -149 -687 -179 -900 -54
-374 -58 -578 -21 -978 49 -531 186 -2208 340 -4156 30 -385 56 -701 58 -702
1 -1 81 13 177 32 96 19 176 34 178 34 3 0 -12 -18 -31 -40 -83 -91 -117 -197
-124 -386 l-6 -142 -281 -6 c-154 -3 -605 -11 -1001 -16 -1459 -21 -2960 -52
-4580 -95 -526 -14 -812 -23 -1898 -56 -218 -7 -401 -15 -406 -18 -5 -3 -59
-197 -120 -431 -62 -234 -114 -433 -117 -442 -5 -17 -73 -18 -1238 -18 l-1233
0 -16 58 c-9 31 -55 206 -102 387 -48 182 -88 331 -89 331 -3 4 -1262 -62
-1851 -96 -3277 -193 -5151 -430 -5344 -676 -28 -35 -26 -56 5 -94 413 -490
7440 -914 17534 -1060 5271 -76 11799 -62 16525 35 143 3 476 10 740 15 478
10 757 16 1100 25 99 3 281 7 405 10 124 3 295 7 380 10 85 2 250 7 365 10
116 3 278 7 360 10 142 4 309 9 705 20 181 5 362 11 630 20 85 3 353 12 595
20 242 8 496 17 565 20 69 2 190 7 270 10 4435 166 7532 397 8755 656 259 54
424 108 515 168 46 30 56 41 58 69 5 48 -17 74 -95 114 -552 286 -3416 558
-7888 748 -258 11 -524 22 -590 25 -66 3 -302 12 -525 20 -223 8 -454 17 -515
20 -60 3 -202 7 -315 10 -113 3 -230 8 -260 10 -30 2 -179 7 -330 11 -151 4
-297 10 -324 13 l-50 6 -27 115 c-16 63 -28 134 -29 158 l0 42 50 0 c48 0 50
1 50 28 0 15 7 180 15 367 66 1523 79 2409 41 2750 -48 423 -114 896 -287
2060 -234 1575 -285 1945 -354 2567 -42 382 -70 576 -180 1248 -122 743 -175
1134 -191 1402 -4 58 -10 111 -13 117 -5 7 -65 -2 -181 -29 -413 -93 -1039
-191 -1465 -229 -533 -48 -1523 -38 -2495 24 -430 28 -855 74 -1002 109 -32 7
-58 12 -58 11 0 -1 -5 -27 -10 -56 -22 -116 -90 -551 -104 -669 -38 -317 -66
-891 -116 -2370 -27 -814 -38 -1067 -55 -1330 -8 -124 -38 -650 -65 -1170
-152 -2855 -261 -4294 -361 -4755 -10 -49 -19 -90 -19 -92 0 -2 45 -3 100 -3
89 0 100 -2 100 -17 0 -10 3 -28 6 -40 4 -15 -3 -31 -28 -58 l-33 -36 -820 11
c-1903 25 -3110 32 -5909 36 -1870 2 -2971 7 -2994 13 -25 7 -54 6 -101 -4
-182 -38 -363 -42 -463 -9 -63 20 -141 105 -291 312 -64 89 -170 235 -234 324
-205 283 -357 458 -399 458 -21 0 -108 -139 -143 -229 -87 -225 -97 -577 -23
-766 11 -27 23 -65 27 -82 l7 -33 -340 0 c-186 0 -427 -3 -535 -7 l-196 -6 70
-91 c81 -106 84 -98 -55 -145 -244 -80 -460 -52 -612 81 -86 76 -236 287 -332
468 -59 111 -116 240 -108 247 3 3 120 29 261 58 141 29 258 55 260 57 2 2 -1
438 -6 968 -13 1178 -6 3576 10 3668 17 98 55 474 116 1137 31 336 63 637 71
670 8 33 80 265 160 515 399 1246 603 1901 759 2429 36 124 67 226 69 228 1 1
44 -86 94 -195 50 -108 130 -280 178 -382 47 -102 153 -331 236 -510 82 -179
176 -381 208 -450 198 -426 515 -1126 603 -1330 38 -90 41 -100 40 -190 -1
-122 -37 -264 -172 -677 -218 -670 -260 -843 -281 -1179 -12 -193 -29 -348
-71 -654 -87 -631 -301 -1917 -529 -3167 -33 -183 -60 -340 -60 -348 0 -13 70
-15 579 -15 l579 0 11 47 c6 27 27 125 46 218 20 94 81 386 136 650 55 264
118 563 139 665 78 374 224 1070 345 1650 68 327 151 723 184 880 72 342 324
1548 387 1850 103 492 156 880 158 1140 0 180 -3 201 -83 485 -72 259 -161
579 -161 582 0 1 32 19 70 38 39 19 70 40 70 47 0 6 -18 79 -39 162 -395 1511
-983 3749 -1019 3881 -15 53 -17 125 -16 605 0 300 6 682 12 850 38 933 82
1643 117 1865 15 99 117 476 129 476 4 0 46 -44 93 -98 300 -343 719 -759 959
-953 239 -193 360 -260 565 -315 193 -52 953 -280 1049 -315 14 -5 99 -32 190
-60 332 -104 1338 -428 1352 -436 8 -5 19 28 118 337 92 290 115 368 108 375
-16 15 -1332 481 -1973 697 -187 63 -398 136 -470 162 -71 26 -149 53 -172 62
-51 18 -84 54 -219 239 -476 657 -986 1419 -1120 1674 -247 472 -517 846 -751
1040 -23 20 -32 37 -37 75 -15 103 -78 405 -111 530 -44 168 -87 289 -142 398
-77 154 -105 253 -112 400 l-6 128 -24 -68z m-3047 -4333 c30 -118 64 -260 76
-315 l21 -100 -227 -417 c-125 -230 -230 -418 -234 -418 -4 0 -22 28 -40 61
-40 76 -50 164 -27 236 20 61 208 662 293 938 79 256 74 239 79 234 2 -3 29
-101 59 -219z m17062 -7056 c351 -1312 915 -3177 1182 -3914 100 -273 309
-1302 621 -3045 145 -813 461 -2639 461 -2667 0 -5 23 -8 50 -8 41 0 50 -3 50
-17 0 -10 3 -28 6 -40 5 -18 -12 -40 -87 -118 l-94 -97 -180 6 c-276 10 -468
15 -730 21 -132 3 -296 7 -365 10 -69 2 -258 7 -420 10 -162 3 -342 7 -400 10
-58 3 -278 7 -490 11 -212 3 -421 7 -465 9 -44 2 -420 9 -835 15 -415 6 -774
13 -796 16 -41 5 -41 5 -53 61 -22 110 -31 102 131 105 l141 3 49 180 c67 245
295 1150 358 1420 411 1754 610 3006 610 3845 1 1019 336 2438 935 3955 124
314 226 558 231 552 3 -2 43 -148 90 -323z"/>
<path d="M43095 25159 c-203 -71 -374 -129 -380 -129 -5 0 -20 18 -33 40 l-22
39 -218 -75 c-119 -41 -356 -123 -527 -181 -170 -59 -312 -108 -315 -110 -2
-3 6 -22 18 -45 13 -22 22 -41 20 -43 -3 -3 -848 -299 -935 -328 -18 -6 -33
-14 -33 -19 0 -4 124 -203 275 -442 206 -324 282 -436 303 -445 64 -29 108
-71 203 -197 55 -74 103 -134 106 -134 3 0 -2 11 -10 23 -210 321 -727 1150
-721 1156 10 9 847 301 863 301 5 0 12 -9 16 -19 15 -47 13 -48 556 140 288
100 525 183 527 184 2 2 -4 17 -13 35 -9 18 -15 33 -13 35 8 7 679 237 682
234 2 -2 82 -150 179 -329 97 -179 329 -606 515 -950 l340 -625 41 -3 c23 -2
41 0 41 3 0 8 -1080 1997 -1089 2007 -3 3 -172 -52 -376 -123z"/>
<path d="M32380 25246 c0 -2 8 -10 18 -17 15 -13 16 -12 3 4 -13 16 -21 21
-21 13z"/>
<path d="M32437 25163 c-3 -5 -2 -15 4 -23 7 -13 9 -13 9 -1 0 8 3 11 8 7 4
-4 7 -13 7 -18 0 -6 6 -12 13 -14 7 -1 8 0 2 3 -5 2 -8 8 -5 13 2 4 -4 15 -14
24 -11 10 -21 13 -24 9z"/>
<path d="M32496 25061 c-3 -5 1 -11 9 -14 9 -4 12 -1 8 9 -6 16 -10 17 -17 5z"/>
<path d="M32521 25025 c0 -5 3 -16 8 -23 7 -11 9 -10 14 3 4 9 3 14 -2 10 -5
-3 -12 1 -14 7 -3 7 -6 9 -6 3z"/>
<path d="M32590 24995 c-7 -8 -16 -13 -19 -10 -4 2 -8 -2 -8 -10 0 -13 4 -12
19 2 17 15 23 11 19 -11 -1 -5 4 -4 12 2 8 7 17 9 21 5 4 -4 4 1 0 11 -5 14
-9 15 -15 4 -8 -12 -13 -4 -10 15 2 11 -5 8 -19 -8z"/>
<path d="M32645 24960 c-4 -6 -1 -9 7 -8 7 2 12 -2 11 -9 -2 -8 4 -10 14 -6
12 5 14 3 8 -7 -5 -9 -4 -11 3 -6 16 10 16 11 -12 30 -16 10 -27 12 -31 6z"/>
<path d="M32614 24948 c-11 -18 -13 -51 -2 -40 9 9 20 52 13 52 -2 0 -7 -6
-11 -12z"/>
<path d="M32637 24924 c-3 -3 -3 -13 0 -22 5 -11 3 -13 -7 -7 -9 5 -11 4 -6
-4 10 -16 25 -4 23 19 -1 22 -1 22 -10 14z"/>
<path d="M32725 24900 c6 -10 4 -12 -8 -7 -11 4 -14 2 -11 -8 6 -14 -12 -15
-33 -2 -7 4 -14 -1 -18 -14 -5 -14 -2 -25 6 -30 19 -12 35 -5 31 14 -2 10 2
15 10 12 18 -7 42 31 26 41 -7 5 -8 3 -3 -6z m-41 -46 c4 -10 1 -14 -6 -12
-15 5 -23 28 -10 28 5 0 13 -7 16 -16z"/>
<path d="M32775 24860 c10 -11 20 -18 23 -16 5 6 -23 36 -34 36 -4 0 1 -9 11
-20z"/>
<path d="M32846 24831 c-4 -6 -13 -8 -20 -5 -18 7 -30 -12 -15 -22 8 -4 9 -3
5 4 -4 7 -3 12 3 12 5 0 13 -4 16 -10 3 -5 12 -10 18 -9 8 0 7 3 -2 6 -11 4
-11 7 0 14 7 4 11 11 7 14 -3 4 -9 2 -12 -4z"/>
<path d="M32698 24813 c6 -2 10 -9 7 -13 -3 -5 0 -12 6 -16 8 -4 9 -3 5 4 -4
7 -1 12 6 12 9 0 9 3 -2 10 -8 5 -19 9 -25 9 -5 0 -4 -3 3 -6z"/>
<path d="M32736 24792 c-4 -7 -2 -12 4 -12 6 0 8 -5 4 -12 -4 -7 -3 -8 5 -4 6
4 20 2 29 -5 14 -11 15 -11 5 1 -10 11 -9 16 5 27 15 11 14 12 -10 4 -19 -7
-28 -7 -31 2 -2 8 -5 8 -11 -1z"/>
<path d="M33048 24763 c7 -3 16 -2 19 1 4 3 -2 6 -13 5 -11 0 -14 -3 -6 -6z"/>
<path d="M33060 24740 c0 -5 7 -10 16 -10 8 0 12 5 9 10 -3 6 -10 10 -16 10
-5 0 -9 -4 -9 -10z"/>
<path d="M32814 24708 c-3 -5 -1 -15 5 -21 9 -9 11 -7 6 8 -6 17 -4 17 13 -4
13 -16 21 -20 26 -12 4 6 5 15 2 20 -9 14 -45 20 -52 9z"/>
<path d="M32946 24632 c-2 -4 -1 -14 4 -22 7 -11 9 -9 7 8 -1 24 -3 26 -11 14z"/>
<path d="M33098 24553 c7 -3 16 -2 19 1 4 3 -2 6 -13 5 -11 0 -14 -3 -6 -6z"/>
<path d="M25144 22012 c-88 -31 -163 -84 -249 -174 -172 -180 -368 -525 -526
-928 -28 -69 -55 -136 -61 -150 -23 -55 -56 -160 -50 -160 4 0 2 -4 -4 -8 -6
-4 -19 -32 -29 -62 -10 -30 -33 -74 -51 -96 -18 -23 -30 -45 -26 -49 4 -5 2
-5 -4 -2 -6 4 -19 -2 -29 -13 -10 -11 -14 -20 -10 -20 11 0 -39 -46 -59 -53
-9 -4 -16 -13 -16 -22 0 -8 -3 -14 -7 -13 -16 5 -64 -35 -59 -49 3 -8 1 -11
-4 -8 -6 4 -28 -8 -50 -25 -22 -17 -40 -28 -40 -24 0 4 -8 -1 -19 -10 -25 -22
-22 -75 4 -90 11 -6 23 -15 28 -21 4 -5 5 2 3 17 -3 16 1 34 9 42 14 13 10 26
-7 26 -5 0 -6 -5 -2 -12 5 -8 2 -9 -11 -4 -16 6 -16 4 -4 -10 12 -15 12 -17 0
-13 -8 3 -18 15 -22 27 -6 16 -5 20 5 16 8 -3 20 4 28 15 8 12 18 18 23 13 5
-4 5 -1 0 7 -6 10 -4 12 4 7 9 -6 9 -11 1 -21 -8 -10 -8 -15 1 -21 8 -4 9 -3
5 5 -5 7 -2 10 6 9 7 -2 12 3 10 11 -5 22 9 55 18 41 4 -6 11 -10 16 -8 5 1
11 -8 13 -22 l3 -25 -21 25 c-17 21 -20 22 -21 8 0 -10 5 -18 12 -18 6 0 4 -6
-7 -13 -12 -10 -14 -16 -7 -21 7 -4 12 -5 12 -1 0 3 8 1 19 -4 14 -8 27 -4 60
20 22 17 41 34 41 38 0 4 12 13 26 19 15 7 22 17 18 24 -4 6 -3 8 4 4 10 -6
152 141 161 167 2 7 10 17 17 22 7 6 41 89 75 185 290 819 622 1320 873 1320
151 0 485 -245 566 -414 80 -169 66 -363 -47 -620 -70 -160 -153 -301 -402
-686 -393 -609 -554 -917 -665 -1270 -82 -262 -117 -539 -98 -770 28 -319 101
-542 295 -898 415 -764 493 -1250 273 -1707 -29 -60 -89 -164 -134 -230 -85
-126 -128 -180 -443 -556 -254 -304 -332 -406 -323 -420 4 -7 3 -9 -4 -5 -6 3
-30 -23 -56 -61 -25 -38 -55 -79 -66 -93 -11 -14 -20 -30 -20 -36 0 -6 -11
-24 -24 -39 -14 -16 -23 -32 -20 -37 3 -4 1 -8 -5 -8 -16 0 -43 -58 -31 -65 9
-6 15 8 11 29 -1 5 5 4 13 -4 9 -7 16 -18 16 -24 0 -7 -4 -6 -9 2 -7 11 -9 11
-14 -2 -4 -9 -13 -13 -22 -10 -11 5 -19 -3 -28 -25 -6 -17 -15 -31 -19 -31 -4
0 -8 -11 -8 -24 0 -13 -6 -27 -12 -29 -10 -4 -10 -8 1 -15 20 -14 23 -42 4
-35 -10 4 -11 8 -3 13 8 5 7 9 -5 14 -22 8 -27 8 -21 -3 3 -5 0 -14 -8 -20
-12 -10 -20 -29 -27 -66 -1 -5 -9 -15 -17 -21 -12 -9 -12 -13 -2 -19 9 -5 11
-4 6 3 -11 17 9 15 24 -3 11 -14 7 -19 -13 -16 -4 1 -16 -3 -26 -9 -21 -11
-22 -60 -1 -85 7 -8 9 -15 4 -15 -5 -1 2 -7 15 -14 17 -9 20 -15 11 -21 -7 -4
-16 -2 -20 4 -5 9 -10 8 -20 -4 -11 -13 -10 -14 5 -9 15 6 16 4 6 -15 -7 -12
-9 -26 -6 -31 3 -6 1 -10 -4 -10 -6 0 -11 5 -11 11 0 5 -5 7 -11 4 -6 -5 -4
-12 8 -22 15 -13 16 -14 1 -9 -9 2 -21 -1 -26 -7 -8 -9 -3 -12 18 -12 15 0 26
3 23 8 -2 4 0 7 6 7 13 0 45 59 37 68 -3 3 2 14 11 24 13 15 15 23 6 37 -13
20 -1 47 16 37 6 -4 11 -4 12 1 0 4 2 16 4 26 2 11 -10 31 -27 48 -22 20 -26
29 -15 29 9 0 19 -9 22 -20 6 -20 25 -19 25 1 0 6 -4 7 -10 4 -5 -3 -10 -2
-10 4 0 5 5 13 10 16 6 4 7 11 4 17 -4 6 -3 8 3 5 6 -4 9 -22 7 -42 -1 -19 2
-33 7 -30 5 4 6 -2 2 -12 -9 -26 2 -13 22 26 9 18 12 30 7 27 -6 -4 -14 -1
-18 5 -4 7 -3 9 2 6 15 -9 34 7 39 31 2 11 13 30 25 42 12 12 19 28 16 36 -3
8 -2 13 2 10 8 -5 92 127 92 145 0 5 5 9 10 9 6 0 10 4 10 10 0 12 121 186
207 298 34 45 63 85 63 89 0 3 6 11 13 17 8 6 47 52 88 101 41 50 76 92 79 95
3 3 41 48 85 100 43 52 82 97 85 100 11 9 196 235 242 295 126 166 241 372
288 513 93 283 83 601 -31 957 -72 225 -173 447 -364 800 -105 195 -174 387
-213 590 -26 141 -23 473 6 627 53 278 166 569 347 893 97 173 163 280 372
603 218 338 303 481 380 636 169 347 187 590 61 829 -69 131 -266 296 -475
397 -107 53 -195 63 -279 32z m-1082 -1744 c-2 -10 -8 -18 -13 -18 -4 0 -7 8
-6 18 0 10 6 19 13 19 6 0 9 -9 6 -19z m-202 -193 c11 -13 10 -14 -4 -9 -9 3
-16 10 -16 15 0 13 6 11 20 -6z m345 -5945 c-3 -5 -12 -10 -18 -10 -7 0 -6 4
3 10 19 12 23 12 15 0z m-65 -14 c0 -2 -8 -10 -17 -17 -16 -13 -17 -12 -4 4
13 16 21 21 21 13z m-23 -153 c2 -6 -1 -14 -6 -18 -7 -4 -8 0 -4 11 4 11 3 15
-5 10 -6 -3 -13 -2 -16 3 -4 5 2 8 11 7 9 -2 19 -8 20 -13z m-90 -71 c-10 -10
-17 -25 -17 -32 0 -7 -3 -10 -7 -7 -8 9 17 57 30 57 6 0 3 -8 -6 -18z m-72
-101 c-3 -6 -14 -11 -23 -11 -13 0 -13 2 4 14 21 15 30 14 19 -3z m29 3 c3 -8
2 -12 -4 -9 -6 3 -10 10 -10 16 0 14 7 11 14 -7z m-35 -116 c7 -11 8 -17 2
-14 -5 4 -13 2 -16 -4 -5 -8 -11 -8 -20 0 -9 8 -14 6 -19 -7 -5 -12 0 -23 13
-35 24 -19 27 -28 7 -28 -17 0 -40 54 -32 75 3 9 2 13 -4 10 -6 -3 -10 -2 -10
4 0 24 64 23 79 -1z m-39 -138 c0 -5 -5 -10 -11 -10 -5 0 -7 -4 -4 -10 3 -5 1
-10 -4 -10 -13 0 -13 3 -5 24 7 18 24 22 24 6z"/>
<path d="M23921 13674 c0 -11 3 -14 6 -6 3 7 2 16 -1 19 -3 4 -6 -2 -5 -13z"/>
<path d="M43972 21393 l-373 -205 54 -61 c29 -33 57 -60 63 -60 5 1 138 72
295 158 l285 158 28 104 c16 57 27 106 25 108 -2 1 -172 -89 -377 -202z"/>
<path d="M23914 20098 c-15 -43 -14 -48 6 -35 13 7 16 15 9 23 -7 8 -2 10 18
8 16 -2 21 -1 13 2 -8 4 -20 11 -27 16 -8 6 -14 2 -19 -14z"/>
<path d="M23766 20093 c-6 -14 -5 -15 5 -6 7 7 10 15 7 18 -3 3 -9 -2 -12 -12z"/>
<path d="M23755 20050 c-3 -5 -1 -10 4 -10 6 0 11 5 11 10 0 6 -2 10 -4 10 -3
0 -8 -4 -11 -10z"/>
<path d="M23835 20043 c3 -3 -3 -16 -12 -27 -14 -15 -14 -18 -2 -8 9 6 18 9
22 6 3 -3 4 1 3 10 -1 8 -5 18 -9 21 -4 3 -5 2 -2 -2z"/>
<path d="M23760 20001 c0 -7 -5 -9 -12 -5 -7 5 -8 3 -3 -5 5 -9 10 -10 18 -2
6 6 8 14 4 18 -4 3 -7 1 -7 -6z"/>
<path d="M23542 18448 c-313 -372 -479 -939 -459 -1568 7 -206 23 -358 64
-595 23 -138 27 -188 28 -365 0 -162 -4 -223 -18 -290 -42 -196 -108 -344
-250 -557 -50 -76 -90 -144 -88 -152 1 -7 -2 -10 -8 -7 -12 8 -33 -28 -23 -39
4 -5 2 -5 -5 -1 -11 6 -37 -26 -38 -47 0 -4 -6 -11 -13 -16 -7 -4 -14 -17 -15
-28 0 -13 -6 -19 -14 -16 -7 3 -13 -2 -13 -11 0 -9 -5 -16 -11 -16 -5 0 -7 -5
-4 -10 3 -6 -1 -13 -9 -16 -23 -9 -20 -29 7 -41 16 -7 28 -6 45 5 12 8 23 12
23 8 1 -3 2 -10 3 -16 0 -5 6 -9 11 -7 6 1 9 7 9 14 -1 7 1 12 5 11 20 -2 22
4 5 17 -19 14 -19 14 2 9 17 -4 38 21 131 153 151 215 185 270 242 387 112
228 146 383 145 666 0 163 -5 222 -28 360 -55 334 -60 392 -60 675 -1 313 13
439 74 680 76 296 198 550 358 742 29 34 52 66 52 71 0 4 -17 25 -39 46 l-39
38 -70 -84z m-826 -3729 c1 -20 -1 -27 -6 -18 -5 7 -6 17 -4 21 3 4 0 8 -6 8
-6 0 -8 5 -5 10 12 19 20 10 21 -21z m-23 -18 c4 -18 2 -19 -32 -12 -4 1 20
31 24 31 1 0 5 -9 8 -19z"/>
<path d="M22715 14664 c-15 -15 -15 -18 -1 -32 21 -21 46 -1 28 21 -7 8 -9 17
-5 20 3 4 4 7 0 7 -3 0 -13 -7 -22 -16z"/>
<path d="M22658 14649 c-10 -5 -15 -16 -11 -24 3 -9 -1 -23 -8 -32 -13 -15
-12 -15 8 -3 12 8 19 18 17 22 -3 4 1 8 8 9 7 0 4 4 -6 8 -17 6 -17 8 -3 14
26 10 49 -29 25 -44 -10 -7 -10 -9 0 -9 7 0 10 -5 7 -10 -5 -8 -11 -7 -21 1
-8 6 -15 9 -15 5 -1 -3 -2 -9 -3 -13 -1 -5 -5 -13 -9 -20 -4 -6 -3 -14 3 -18
7 -4 7 -12 0 -26 -7 -13 -7 -19 0 -19 5 0 10 7 10 15 0 8 5 15 10 15 7 0 7 6
0 20 -6 11 -9 20 -8 21 2 0 11 2 21 4 10 2 25 12 32 21 11 16 10 22 -9 46 -24
31 -25 31 -48 17z"/>
<path d="M22586 14468 c3 -5 10 -6 15 -3 13 9 11 12 -6 12 -8 0 -12 -4 -9 -9z"/>
<path d="M23826 13609 c-8 -12 -12 -28 -9 -36 3 -8 -2 -20 -12 -27 -14 -10
-15 -15 -5 -21 8 -5 11 -4 6 3 -9 14 15 21 36 10 14 -6 16 -5 12 7 -4 8 -1 22
6 30 9 10 9 15 1 15 -6 0 -11 -4 -11 -10 0 -5 -7 -7 -15 -4 -11 5 -12 11 -4
26 9 16 13 17 27 6 15 -12 16 -11 3 5 -17 21 -17 21 -35 -4z"/>
<path d="M23790 13491 c0 -6 4 -13 10 -16 6 -3 7 1 4 9 -7 18 -14 21 -14 7z"/>
<path d="M23832 13451 c-11 -6 -10 -10 3 -15 10 -3 15 -12 11 -21 -3 -8 -1
-15 5 -15 7 0 9 10 5 26 -5 18 -3 24 5 18 8 -4 9 -3 5 4 -8 14 -16 15 -34 3z"/>
<path d="M23731 13333 c6 -7 8 -16 5 -21 -3 -5 0 -9 7 -9 7 0 12 10 12 22 0
13 -6 21 -17 21 -12 0 -14 -4 -7 -13z"/>
<path d="M23770 13281 c0 -7 -5 -9 -12 -5 -7 5 -8 3 -3 -5 5 -9 10 -10 18 -2
6 6 8 14 4 18 -4 3 -7 1 -7 -6z"/>
<path d="M23689 13263 c-13 -16 -12 -17 4 -4 16 13 21 21 13 21 -2 0 -10 -8
-17 -17z"/>
<path d="M23760 13169 c0 -5 5 -7 10 -4 6 3 10 8 10 11 0 2 -4 4 -10 4 -5 0
-10 -5 -10 -11z"/>
<path d="M23666 12668 c3 -5 10 -6 15 -3 13 9 11 12 -6 12 -8 0 -12 -4 -9 -9z"/>
<path d="M23761 12483 c-1 -17 16 -25 25 -12 4 7 3 9 -4 5 -5 -3 -13 0 -15 6
-4 9 -6 10 -6 1z"/>
<path d="M23756 12377 c3 -10 9 -15 12 -12 3 3 0 11 -7 18 -10 9 -11 8 -5 -6z"/>
<path d="M23804 12356 c-10 -8 -17 -16 -14 -19 3 -2 14 4 24 14 23 22 18 25
-10 5z"/>
<path d="M23844 12255 c3 -21 16 -31 16 -12 0 9 -4 18 -9 21 -5 4 -8 -1 -7 -9z"/>
<path d="M23766 12231 c8 -9 44 -11 44 -3 0 4 -11 8 -25 8 -13 0 -22 -2 -19
-5z"/>
<path d="M23857 12214 c-3 -3 -3 -12 0 -20 4 -10 0 -12 -13 -8 -17 6 -17 5 1
-9 25 -19 34 -14 27 18 -5 27 -6 28 -15 19z"/>
<path d="M23890 12180 c6 -11 13 -20 16 -20 2 0 0 9 -6 20 -6 11 -13 20 -16
20 -2 0 0 -9 6 -20z"/>
<path d="M19246 12143 c-6 -14 -5 -15 5 -6 7 7 10 15 7 18 -3 3 -9 -2 -12 -12z"/>
<path d="M23815 12141 c-3 -5 -2 -12 3 -15 5 -3 9 1 9 9 0 17 -3 19 -12 6z"/>
<path d="M23920 12100 c0 -12 -7 -21 -17 -22 -10 0 -23 -2 -30 -2 -7 -1 -18
-7 -25 -14 -10 -10 -8 -16 8 -32 20 -20 20 -20 21 1 1 14 -3 19 -13 15 -14 -5
-19 5 -8 17 13 13 43 -13 37 -31 -6 -15 -5 -15 11 -2 16 13 20 12 37 -9 20
-25 26 -95 9 -106 -5 -3 -7 -13 -4 -23 5 -14 3 -14 -10 2 -20 25 -21 8 -1 -18
9 -11 15 -14 15 -7 0 9 5 8 16 -3 8 -9 23 -16 32 -16 10 -1 5 -7 -13 -15 -16
-7 -24 -14 -17 -14 6 -1 12 -8 12 -17 0 -9 5 -12 12 -8 7 5 9 2 5 -9 -3 -8 1
-21 9 -27 8 -7 14 -9 14 -5 0 5 8 1 18 -8 10 -10 22 -14 27 -10 4 5 -1 -5 -11
-22 -11 -16 -13 -26 -6 -21 9 5 12 3 10 -5 -3 -16 49 -109 61 -109 4 0 8 -6 8
-12 0 -7 21 -47 48 -88 26 -41 92 -148 146 -237 53 -89 99 -160 102 -157 3 3
4 -1 4 -8 -1 -7 15 -45 35 -84 282 -544 219 -920 -207 -1245 -38 -29 -71 -56
-73 -61 -2 -4 -8 -8 -13 -8 -19 0 -129 -81 -126 -92 1 -7 -7 -12 -18 -13 -12
0 -19 -6 -17 -14 2 -8 -3 -11 -13 -8 -10 4 -20 -3 -30 -23 -19 -37 -19 -46 0
-30 8 7 15 8 15 3 0 -16 -33 -41 -65 -49 l-30 -8 30 -6 c20 -4 34 -1 43 10 11
13 11 12 3 -7 -15 -30 -14 -33 7 -26 13 4 14 3 6 -6 -13 -14 -47 -4 -37 12 3
5 1 7 -4 4 -6 -4 -10 -18 -10 -33 0 -14 2 -22 6 -18 3 5 13 10 21 12 8 2 26
14 39 27 21 20 22 26 11 40 -11 14 -11 16 0 13 8 -2 14 2 15 9 0 6 4 15 9 20
5 5 6 3 2 -4 -4 -8 -2 -13 6 -13 8 0 6 -5 -5 -11 -9 -6 -15 -14 -12 -19 6 -9
150 90 171 118 8 9 14 13 14 9 0 -14 141 89 220 159 378 341 430 728 168 1259
-72 147 -111 216 -246 435 -136 219 -139 224 -144 213 -3 -4 -3 -2 -1 5 3 14
-31 70 -52 84 -6 5 -6 8 0 8 7 0 7 3 0 8 -5 4 -21 29 -35 56 -14 26 -31 50
-37 53 -7 3 -10 9 -7 14 9 16 -8 10 -20 -7 -10 -13 -12 -13 -12 5 0 11 4 18 7
15 4 -2 10 0 14 6 3 5 1 10 -6 10 -7 0 -9 3 -6 6 4 4 -3 21 -16 38 -12 16 -22
37 -24 46 -1 8 -10 22 -20 30 -10 8 -18 21 -19 28 -2 28 -5 31 -21 25 -14 -5
-15 -3 -6 7 12 13 7 40 -8 40 -5 0 -9 -9 -9 -20z m-5 -40 c3 -6 -1 -7 -9 -4
-18 7 -21 14 -7 14 6 0 13 -4 16 -10z m70 -58 c-3 -3 -11 0 -18 7 -9 10 -8 11
6 5 10 -3 15 -9 12 -12z m-8 -89 c-4 -3 1 -12 11 -20 9 -8 13 -13 7 -10 -5 2
-18 7 -28 10 -19 7 -15 27 5 27 6 0 8 -3 5 -7z m158 -193 c3 -6 -1 -7 -9 -4
-18 7 -21 14 -7 14 6 0 13 -4 16 -10z m-121 -2188 c3 -5 -1 -9 -9 -9 -8 0 -12
4 -9 9 3 4 7 8 9 8 2 0 6 -4 9 -8z"/>
<path d="M23909 12011 c-7 -10 -19 -17 -28 -14 -14 4 -14 4 -1 -6 8 -6 11 -11
7 -11 -12 0 32 -60 44 -60 12 0 12 97 -1 105 -5 3 -15 -3 -21 -14z m14 -12
c-6 -6 -10 -17 -9 -23 2 -6 1 -8 -1 -3 -3 4 -9 4 -15 1 -5 -4 -2 5 7 20 10 15
20 24 23 21 3 -3 1 -10 -5 -16z"/>
<path d="M24020 11735 c0 -8 7 -15 16 -15 14 0 14 3 4 15 -7 8 -14 15 -16 15
-2 0 -4 -7 -4 -15z"/>
<path d="M22105 10704 c2 -4 0 -14 -5 -24 -6 -12 -5 -17 4 -17 13 0 15 32 3
42 -4 3 -5 2 -2 -1z"/>
<path d="M22095 10620 c-3 -6 1 -7 9 -4 18 7 21 14 7 14 -6 0 -13 -4 -16 -10z"/>
<path d="M22092 10596 c4 -5 3 -19 -3 -33 -5 -13 -5 -22 0 -19 15 9 20 46 8
53 -7 3 -9 3 -5 -1z"/>
<path d="M20803 10535 c0 -8 4 -12 9 -9 5 3 6 10 3 15 -9 13 -12 11 -12 -6z"/>
<path d="M22048 10464 c-4 -3 -14 -7 -24 -8 -20 -3 -32 -26 -14 -26 9 0 9 -5
-1 -17 -8 -9 -9 -14 -2 -10 6 4 13 1 16 -5 2 -7 4 0 4 15 1 35 11 46 24 27 9
-13 10 -12 6 2 -3 9 -1 19 6 22 7 3 8 5 1 5 -6 1 -13 -2 -16 -5z"/>
<path d="M22005 10354 c2 -23 -1 -34 -10 -34 -7 0 -15 -8 -19 -17 -3 -10 -9
-25 -13 -33 -5 -13 -4 -13 10 -1 27 22 20 7 -13 -28 -30 -30 -53 -44 -31 -18
6 8 8 17 4 20 -3 4 -8 23 -10 42 -3 28 0 33 12 29 8 -4 15 -1 15 6 0 8 -8 10
-22 6 -13 -3 -38 -6 -55 -6 -26 0 -33 -4 -33 -20 0 -17 -7 -20 -40 -20 -39 0
-40 -1 -40 -35 0 -34 -1 -35 -40 -35 -28 0 -40 4 -40 14 0 8 6 16 13 19 6 2 3
3 -8 1 -11 -2 -35 -4 -52 -4 -26 0 -33 -4 -33 -20 0 -17 -7 -20 -40 -20 -39 0
-40 -1 -40 -35 0 -34 -1 -35 -40 -35 -28 0 -40 4 -40 14 0 8 6 16 13 19 6 2 3
3 -8 1 -11 -2 -35 -4 -52 -4 -26 0 -33 -4 -33 -20 0 -17 -7 -20 -40 -20 -39 0
-40 -1 -40 -35 0 -34 -1 -35 -40 -35 -28 0 -40 4 -40 14 0 8 6 16 13 19 6 2 3
3 -8 1 -11 -2 -35 -4 -52 -4 -27 0 -33 -4 -33 -21 0 -18 -5 -20 -42 -17 -25 2
-42 8 -41 14 1 7 -5 11 -14 10 -9 0 -18 5 -21 13 -3 10 0 12 11 8 9 -3 19 -1
23 5 4 7 3 8 -4 4 -16 -10 -15 7 1 23 10 11 9 12 -2 6 -8 -4 -17 -2 -23 6 -7
10 -8 8 -3 -7 4 -15 0 -24 -11 -28 -15 -6 -15 -9 5 -29 11 -13 21 -32 21 -43
0 -16 2 -17 10 -4 6 10 10 11 10 3 0 -7 -9 -18 -20 -25 -11 -7 -20 -16 -20
-21 0 -4 6 -5 13 -1 9 6 9 5 0 -7 -9 -11 -10 -25 -4 -47 5 -17 7 -33 4 -35
-10 -10 9 -77 21 -70 8 5 8 3 0 -8 -12 -15 -17 -86 -7 -102 9 -14 4 -486 -7
-672 -25 -415 -96 -1002 -175 -1463 -14 -79 -25 -147 -25 -152 0 -6 129 -10
338 -10 l339 0 12 238 c21 414 58 805 107 1132 38 257 139 740 184 885 16 50
49 169 53 190 2 11 10 34 16 50 7 17 14 39 16 50 1 11 7 31 13 45 5 14 8 28 5
33 -2 4 0 7 5 7 5 0 14 18 21 41 7 23 15 48 19 58 4 12 2 14 -9 6 -12 -8 -12
-7 1 5 20 20 42 69 35 81 -4 5 -2 9 3 9 6 0 15 14 21 30 7 22 7 30 -1 30 -7 0
-4 6 5 13 9 6 21 24 26 38 8 23 7 28 -9 32 -15 4 -18 0 -15 -29z m-123 -126
c-8 -8 -20 -8 -44 -1 l-33 11 45 1 c33 1 41 -2 32 -11z m69 -31 c-10 -9 -11
-8 -5 6 3 10 9 15 12 12 3 -3 0 -11 -7 -18z m-31 -7 c0 -12 -8 -12 -35 0 -18
8 -17 9 8 9 15 1 27 -3 27 -9z m-278 -42 c-8 -8 -20 -8 -44 -1 l-33 11 45 1
c33 1 41 -2 32 -11z m176 5 c-15 -2 -42 -2 -60 0 -18 2 -6 4 27 4 33 0 48 -2
33 -4z m-128 -42 c0 -17 -3 -18 -31 -8 l-31 12 28 6 c16 4 30 7 32 8 1 0 2 -8
2 -18z m-288 -43 c-8 -8 -20 -8 -44 -1 l-33 11 45 1 c33 1 41 -2 32 -11z m176
5 c-15 -2 -42 -2 -60 0 -18 2 -6 4 27 4 33 0 48 -2 33 -4z m305 -8 c-3 -9 -8
-14 -10 -11 -3 3 -2 9 2 15 9 16 15 13 8 -4z m-433 -34 c0 -17 -3 -18 -31 -8
l-31 12 28 6 c16 4 30 7 32 8 1 0 2 -8 2 -18z m404 -17 c3 -8 2 -12 -4 -9 -6
3 -10 10 -10 16 0 14 7 11 14 -7z m-692 -26 c-8 -8 -20 -8 -44 -1 l-33 11 45
1 c33 1 41 -2 32 -11z m176 5 c-15 -2 -42 -2 -60 0 -18 2 -6 4 27 4 33 0 48
-2 33 -4z m-128 -42 c0 -17 -3 -18 -31 -8 l-31 12 28 6 c16 4 30 7 32 8 1 0 2
-8 2 -18z m-173 -8 c0 -9 -4 -10 -14 -2 -7 6 -13 12 -13 14 0 1 6 2 13 2 8 0
14 -6 14 -14z m83 -26 c-7 -7 -88 -12 -94 -6 -3 3 18 7 46 8 29 1 50 0 48 -2z"/>
<path d="M20920 10331 c0 -6 4 -13 10 -16 6 -3 7 1 4 9 -7 18 -14 21 -14 7z"/>
<path d="M21947 10306 c-21 -16 -22 -26 -3 -26 8 0 17 7 20 16 9 23 4 25 -17
10z"/>
<path d="M20725 10299 c-4 -6 -5 -12 -2 -15 2 -3 7 2 10 11 7 17 1 20 -8 4z"/>
<path d="M21940 10254 c0 -8 5 -12 10 -9 6 4 8 11 5 16 -9 14 -15 11 -15 -7z"/>
<path d="M20776 10252 c-3 -5 1 -9 9 -9 8 0 12 4 9 9 -3 4 -7 8 -9 8 -2 0 -6
-4 -9 -8z"/>
<path d="M20973 10131 c-1 -23 0 -24 10 -6 5 11 15 23 21 27 6 4 2 6 -9 6 -14
-1 -20 -10 -22 -27z"/>
<path d="M20822 10120 c1 -8 -2 -24 -7 -35 -16 -32 -12 -90 5 -87 13 2 13 1 0
-10 -16 -14 -26 -43 -11 -34 10 6 25 -23 16 -32 -3 -3 -5 0 -5 6 0 7 -4 12
-10 12 -5 0 -9 -3 -9 -7 6 -35 -2 -43 -41 -43 -28 0 -40 4 -40 14 0 8 6 16 13
19 6 2 3 3 -8 1 -11 -2 -35 -4 -52 -4 -26 0 -33 -4 -33 -20 0 -17 -7 -20 -40
-20 -39 0 -40 -1 -40 -35 0 -34 -1 -35 -40 -35 -28 0 -40 4 -40 14 0 8 6 16
13 19 6 2 3 3 -8 1 -11 -2 -35 -4 -52 -4 -26 0 -33 -4 -33 -20 0 -17 -7 -20
-40 -20 -39 0 -40 -1 -40 -35 0 -34 -1 -35 -40 -35 -28 0 -40 4 -40 14 0 8 6
16 13 19 6 2 3 3 -8 1 -11 -2 -35 -4 -52 -4 -26 0 -33 -4 -33 -20 0 -17 -7
-20 -40 -20 -39 0 -40 -1 -40 -35 0 -34 -1 -35 -40 -35 -28 0 -40 4 -40 14 0
8 6 16 13 19 6 2 3 3 -8 1 -11 -2 -35 -4 -52 -4 -26 0 -33 -4 -33 -20 0 -17
-7 -20 -40 -20 -39 0 -40 -1 -40 -35 l0 -35 -50 0 c-41 0 -50 3 -50 18 0 14 2
15 10 2 6 -9 10 -10 10 -3 0 6 6 13 13 16 6 2 4 3 -5 2 -9 -2 -19 3 -22 11 -3
8 -2 14 3 14 4 0 8 6 8 14 0 14 -21 16 -33 3 -10 -10 -26 -9 -20 1 2 4 1 14
-5 22 -7 13 -9 13 -9 0 0 -13 -1 -13 -10 0 -8 13 -10 13 -10 -1 0 -9 7 -19 15
-23 8 -3 12 -12 9 -21 -3 -8 -1 -15 6 -15 6 0 9 -4 5 -9 -3 -5 -1 -13 5 -16 7
-4 10 3 8 21 -2 15 2 29 7 31 6 2 10 -16 9 -47 -1 -42 1 -48 13 -38 11 9 13 8
11 -3 -2 -8 -6 -16 -10 -19 -8 -6 31 -93 43 -98 5 -2 6 -9 3 -16 -3 -8 2 -16
11 -20 9 -3 13 -11 10 -16 -7 -11 25 -110 35 -110 3 0 6 -8 6 -17 1 -10 20
-83 42 -163 43 -149 125 -515 120 -531 -2 -5 -28 33 -58 83 -100 170 -308 427
-332 411 -6 -3 -8 -1 -5 4 9 15 -176 173 -202 173 -6 0 -11 5 -11 12 0 6 -3 9
-6 6 -3 -4 0 -17 7 -30 11 -21 11 -22 -4 -9 -10 7 -17 10 -17 6 0 -4 -6 -2
-14 4 -15 12 -18 54 -4 45 4 -3 5 -11 2 -18 -3 -8 -1 -17 5 -21 20 -12 12 31
-9 50 -20 18 -20 17 -20 -33 0 -28 5 -54 12 -58 8 -5 9 -2 4 11 -5 14 -4 16 7
7 8 -7 17 -9 20 -5 4 3 7 -5 7 -20 0 -14 5 -29 10 -32 6 -3 10 -1 10 6 0 7 3
9 7 6 3 -4 11 -3 18 1 6 4 3 0 -7 -9 -9 -9 -14 -20 -10 -25 4 -5 -3 0 -15 10
-14 12 -23 14 -23 7 0 -7 -5 -9 -12 -5 -9 5 -8 2 1 -9 8 -10 16 -15 19 -13 2
3 13 -6 24 -19 11 -14 23 -25 28 -25 5 0 22 -12 38 -27 59 -56 86 -78 77 -64
-6 10 -4 12 4 7 7 -5 10 -10 7 -13 -3 -3 30 -47 73 -98 159 -188 297 -420 409
-690 47 -112 53 -138 97 -400 25 -154 51 -301 57 -327 l10 -48 228 0 228 0 16
88 c87 488 171 1202 196 1662 11 221 13 483 3 493 -3 4 -7 44 -7 89 l-1 83
-60 6 -60 6 58 1 57 2 0 35 c0 24 -5 35 -14 35 -8 0 -18 5 -21 10 -4 6 -3 10
2 9 23 -4 25 3 4 14 -14 6 -27 19 -29 27 -4 12 -1 11 15 -2 11 -10 24 -18 29
-18 5 0 2 5 -6 10 -11 7 -11 10 -2 10 7 0 10 5 6 11 -4 8 -9 7 -15 -2 -6 -10
-9 -10 -9 -2 0 6 5 15 10 18 14 9 2 25 -14 19 -7 -3 -13 2 -13 10 0 8 6 12 14
9 7 -3 13 0 13 6 0 6 -5 10 -11 9 -6 -2 -13 5 -14 15 -2 13 1 17 11 13 8 -3
14 -1 14 4 0 6 -5 10 -11 10 -5 0 -8 4 -5 8 2 4 0 14 -5 22 -9 13 -9 13 -7 0z
m-140 -292 c-8 -8 -20 -8 -44 -1 l-33 11 45 1 c33 1 41 -2 32 -11z m48 -37 c0
-17 -3 -18 -31 -8 l-31 12 28 6 c16 4 30 7 32 8 1 0 2 -8 2 -18z m-288 -43
c-8 -8 -20 -8 -44 -1 l-33 11 45 1 c33 1 41 -2 32 -11z m176 5 c-15 -2 -42 -2
-60 0 -18 2 -6 4 27 4 33 0 48 -2 33 -4z m-128 -42 c0 -17 -3 -18 -31 -8 l-31
12 28 6 c16 4 30 7 32 8 1 0 2 -8 2 -18z m-288 -43 c-8 -8 -20 -8 -44 -1 l-33
11 45 1 c33 1 41 -2 32 -11z m176 5 c-15 -2 -42 -2 -60 0 -18 2 -6 4 27 4 33
0 48 -2 33 -4z m-128 -42 c0 -17 -3 -18 -31 -8 l-31 12 28 6 c16 4 30 7 32 8
1 0 2 -8 2 -18z m-288 -43 c-8 -8 -20 -8 -44 -1 l-33 11 45 1 c33 1 41 -2 32
-11z m176 5 c-15 -2 -42 -2 -60 0 -18 2 -6 4 27 4 33 0 48 -2 33 -4z m-128
-42 c0 -17 -3 -18 -31 -8 l-31 12 28 6 c16 4 30 7 32 8 1 0 2 -8 2 -18z m-100
-37 c-37 -8 -88 -9 -84 -2 3 4 26 7 52 7 26 -1 40 -3 32 -5z m-127 -21 c-4
-11 -3 -14 5 -9 7 4 12 2 12 -3 0 -15 -15 -14 -29 3 -11 13 -10 16 16 25 1 1
-1 -6 -4 -16z m57 -69 c0 -8 -19 -13 -24 -6 -3 5 1 9 9 9 8 0 15 -2 15 -3z
m-406 -242 c3 -5 -1 -9 -9 -9 -8 0 -15 4 -15 9 0 4 4 8 9 8 6 0 12 -4 15 -8z
m57 -19 c13 -16 12 -17 -3 -4 -17 13 -22 21 -14 21 2 0 10 -8 17 -17z m-11
-49 c0 -8 -19 -13 -24 -6 -3 5 1 9 9 9 8 0 15 -2 15 -3z"/>
<path d="M20995 10026 c0 -13 5 -23 11 -23 6 0 9 9 6 19 -7 27 -17 29 -17 4z"/>
<path d="M19569 9822 c-13 -15 -12 -16 3 -4 13 10 17 10 21 0 4 -9 6 -9 6 -1
2 20 -16 24 -30 5z"/>
<path d="M19645 9710 c-4 -6 1 -7 11 -3 13 5 15 3 9 -7 -5 -9 -4 -11 4 -6 6 4
9 12 6 17 -8 12 -22 12 -30 -1z"/>
<path d="M23927 9510 c-14 -14 -15 -19 -5 -23 8 -4 6 -6 -5 -6 -10 -1 -15 -6
-12 -11 11 -17 38 5 41 34 1 14 2 26 1 25 -1 0 -10 -8 -20 -19z"/>
<path d="M23876 9463 c-6 -14 -5 -15 5 -6 7 7 10 15 7 18 -3 3 -9 -2 -12 -12z"/>
<path d="M23821 9426 c-9 -10 -7 -17 6 -27 16 -12 17 -12 6 2 -10 12 -10 18
-1 27 7 7 9 12 6 12 -3 0 -11 -6 -17 -14z"/>
<path d="M23765 9381 c-3 -5 0 -13 6 -17 7 -4 9 -3 5 4 -3 5 0 13 6 15 9 4 10
6 1 6 -6 1 -14 -3 -18 -8z"/>
<path d="M19262 9344 c10 -10 20 -16 22 -13 3 3 -5 11 -17 18 -21 13 -21 12
-5 -5z"/>
<path d="M23843 9338 c-1 -11 3 -18 9 -16 15 5 19 35 4 35 -7 0 -13 -9 -13
-19z"/>
<path d="M23880 9350 c0 -5 7 -7 15 -4 8 4 15 8 15 10 0 2 -7 4 -15 4 -8 0
-15 -4 -15 -10z"/>
<path d="M19307 9305 c3 -8 9 -12 14 -9 12 7 11 11 -5 17 -10 4 -13 1 -9 -8z"/>
<path d="M19205 9291 c-3 -5 -2 -12 3 -15 5 -3 9 1 9 9 0 17 -3 19 -12 6z"/>
<path d="M23755 9260 c6 -10 4 -12 -11 -6 -15 6 -17 5 -6 -5 9 -9 15 -10 23
-2 8 8 7 13 -2 18 -8 6 -10 4 -4 -5z"/>
<path d="M19329 9199 c0 -2 -2 -11 -4 -20 -4 -21 25 -38 50 -28 13 5 15 8 5 8
-13 1 -13 2 0 12 13 9 13 10 0 6 -8 -2 -23 2 -32 11 -10 8 -18 13 -19 11z"/>
<path d="M19206 7487 c3 -10 9 -15 12 -12 3 3 0 11 -7 18 -10 9 -11 8 -5 -6z"/>
</g>
</svg>
